<?xml version="1.0" encoding="utf-8"?>
<!-- Generator: Adobe Illustrator 16.0.0, SVG Export Plug-In . SVG Version: 6.00 Build 0)  -->
<!DOCTYPE svg PUBLIC "-//W3C//DTD SVG 1.1//EN" "http://www.w3.org/Graphics/SVG/1.1/DTD/svg11.dtd">
<svg version="1.1" id="Layer_1" xmlns="http://www.w3.org/2000/svg" xmlns:xlink="http://www.w3.org/1999/xlink" x="0px" y="0px"
	 width="993.541px" height="241.033px" viewBox="0 0 993.541 241.033" enable-background="new 0 0 993.541 241.033"
	 xml:space="preserve">
<g>
	<path fill="#59763C" stroke="#234320" stroke-width="0.936" stroke-miterlimit="10" d="M159.525,144.84
		c1.17-2.397,4.917-8.135,7.14-11.063c2.226-2.926-10.886,10.945-12.173,12.643c-1.288,1.697-0.234,0.234-1.346-0.586
		c-1.112-0.817-20.543-19.08-15.98-13.46c4.563,5.62,10.126,11.237,11.648,15.042c1.521,3.806,1.698,6.027,1.698,6.027l9.6-1.873
		C160.11,151.57,158.354,147.24,159.525,144.84L159.525,144.84z"/>
	<path fill="#7DA25E" stroke="#234320" stroke-width="0.936" stroke-miterlimit="10" d="M160.11,151.57c0,0,2.224-6.32,7.49-9.363
		c5.27-3.045-0.623-1.834-8.311,3.59c-1.873,1.854-3.16,4.721-4.72,4.955c-1.56,0.235-3.005-0.936-7.103-3.395
		c-4.097-2.46-14.279-8.313-9.832-4.683c4.447,3.627,12.407,7.726,12.876,10.769C151.156,152.857,160.111,151.57,160.11,151.57
		L160.11,151.57z"/>
	<path fill="#2B3420" stroke="#234320" stroke-width="1.405" stroke-miterlimit="10" d="M154.023,150.322
		c0,0-3.12-22.787-2.966-36.365"/>
	
		<ellipse transform="matrix(-0.7546 0.6562 -0.6562 -0.7546 315.2713 97.9191)" fill="#2F358C" stroke="#343433" stroke-width="0.936" stroke-miterlimit="10" cx="139.327" cy="107.908" rx="4.448" ry="3.453"/>
	<path fill="#2F358C" stroke="#343433" stroke-width="1.057" stroke-miterlimit="10" d="M141.472,111.645
		c-0.44,2.664,0.967,5.117,3.146,5.479c2.177,0.362,4.304-1.507,4.747-4.17c0.442-2.667-0.965-5.118-3.146-5.479
		C144.042,107.111,141.915,108.979,141.472,111.645z"/>
	<path fill="#2F358C" stroke="#343433" stroke-width="1.114" stroke-miterlimit="10" d="M150.375,112.947
		c1.644,2.39,4.5,3.27,6.387,1.977c1.885-1.295,2.085-4.279,0.444-6.668c-1.644-2.39-4.5-3.272-6.387-1.979
		C148.932,107.572,148.735,110.561,150.375,112.947L150.375,112.947z"/>
	<path fill="#2F358C" stroke="#343433" stroke-width="1.114" stroke-miterlimit="10" d="M155.777,106.63
		c2.625,1.227,5.535,0.542,6.507-1.527c0.972-2.07-0.368-4.75-2.99-5.98c-2.626-1.229-5.537-0.544-6.508,1.526
		c-0.974,2.073,0.37,4.75,2.99,5.979L155.777,106.63z"/>
	<path fill="#2F358C" stroke="#343433" stroke-width="0.917" stroke-miterlimit="10" d="M150.56,99.525
		c2.427,0.49,4.682-0.553,5.044-2.326c0.359-1.78-1.315-3.623-3.74-4.115c-2.428-0.489-4.685,0.554-5.045,2.33
		C146.455,97.194,148.134,99.034,150.56,99.525L150.56,99.525z"/>
	<path fill="#2F358C" stroke="#343433" stroke-width="0.961" stroke-miterlimit="10" d="M144.373,101.145
		c1.99-1.83,2.605-4.396,1.378-5.74c-1.228-1.35-3.848-0.958-5.843,0.867c-1.99,1.828-2.608,4.395-1.378,5.74
		C139.76,103.362,142.378,102.967,144.373,101.145z"/>
	
		<ellipse transform="matrix(-0.1668 -0.986 0.986 -0.1668 70.5888 266.5544)" fill="#FCEB84" stroke="#2D2E2D" stroke-width="0.993" stroke-miterlimit="10" cx="147.923" cy="103.451" rx="5.092" ry="6.023"/>
</g>
<g>
	<path fill="#E1CF87" stroke="#030303" stroke-width="0.913" stroke-miterlimit="10" d="M-0.065,186.64V141.96l10.012-26.667
		l13.908,25.334L34.98,117.96l11.127,22.667l15.02-29.334l13.908,22l12.238-17.334l9.457,22l17.802-22l12.794,20l11.127-20
		l12.238,21.333l14.465-17.334l12.24,20.667l13.907-19.334l13.906,16.666l10.568-18l12.24,18l10.569-17.333l11.125,20l15.576-21.334
		l13.907,18.666l11.125-16l15.578,19.333l14.463-20.666l12.238,20l-1.667,45.334"/>
	<path fill="none" stroke="#030303" stroke-width="0.913" stroke-miterlimit="10" d="M23.855,140.627l-1.112,40 M46.107,140.627
		l-1.67,41.334 M75.035,133.293L72.81,179.96 M96.73,137.96v41.333 M127.326,135.96l-1.668,42.667 M150.69,137.293l-1.667,42.668
		 M177.395,140.627v38.666 M205.21,137.96l-0.557,46 M228.018,137.96v44.667 M249.713,140.627l-0.557,44 M279.197,137.96
		l-2.78,46.667 M305.62,140.627l-0.556,47.334"/>
</g>
<g>
	<path fill="#59763C" stroke="#234320" stroke-width="0.936" stroke-miterlimit="10" d="M825.753,141.293
		c1.172-2.397,4.918-8.135,7.14-11.063c2.226-2.926-10.886,10.944-12.173,12.643s-0.235,0.234-1.347-0.586
		c-1.11-0.817-20.543-19.08-15.98-13.46s10.126,11.237,11.646,15.042c1.523,3.804,1.7,6.026,1.7,6.026l9.598-1.873
		C826.337,148.022,824.582,143.692,825.753,141.293L825.753,141.293z"/>
	<path fill="#7DA25E" stroke="#234320" stroke-width="0.936" stroke-miterlimit="10" d="M826.339,148.023
		c0,0,2.225-6.32,7.491-9.363c5.269-3.045-0.625-1.834-8.313,3.59c-1.87,1.854-3.16,4.721-4.72,4.955
		c-1.561,0.235-3.005-0.936-7.104-3.395c-4.096-2.46-14.28-8.313-9.832-4.683c4.447,3.627,12.408,7.726,12.877,10.769
		C817.383,149.311,826.338,148.023,826.339,148.023L826.339,148.023z"/>
	<path fill="#2B3420" stroke="#234320" stroke-width="1.405" stroke-miterlimit="10" d="M820.253,146.775
		c0,0-3.12-22.787-2.968-36.365"/>
	
		<ellipse transform="matrix(-0.7547 0.656 -0.656 -0.7547 1482.0743 -345.3118)" fill="#EA8823" stroke="#343433" stroke-width="0.936" stroke-miterlimit="10" cx="805.587" cy="104.39" rx="4.447" ry="3.453"/>
	<path fill="#EA8823" stroke="#343433" stroke-width="1.057" stroke-miterlimit="10" d="M807.7,108.098
		c-0.441,2.664,0.966,5.116,3.147,5.479c2.178,0.362,4.305-1.507,4.748-4.17c0.439-2.667-0.967-5.118-3.146-5.479
		C810.269,103.564,808.142,105.432,807.7,108.098L807.7,108.098z"/>
	<path fill="#EA8823" stroke="#343433" stroke-width="1.114" stroke-miterlimit="10" d="M816.602,109.4
		c1.643,2.39,4.502,3.27,6.387,1.977c1.886-1.293,2.083-4.279,0.444-6.668c-1.646-2.392-4.502-3.273-6.387-1.979
		C815.156,104.024,814.961,107.013,816.602,109.4L816.602,109.4z"/>
	<path fill="#EA8823" stroke="#343433" stroke-width="1.114" stroke-miterlimit="10" d="M822.007,103.082
		c2.623,1.228,5.534,0.543,6.506-1.526c0.973-2.07-0.367-4.75-2.99-5.98c-2.625-1.229-5.537-0.544-6.508,1.527
		C818.039,99.174,819.385,101.852,822.007,103.082z"/>
	<path fill="#EA8823" stroke="#343433" stroke-width="0.917" stroke-miterlimit="10" d="M816.787,95.978
		c2.429,0.489,4.685-0.554,5.045-2.326c0.36-1.777-1.313-3.62-3.739-4.113c-2.429-0.49-4.685,0.552-5.045,2.33
		C812.684,93.647,814.363,95.487,816.787,95.978L816.787,95.978z"/>
	<path fill="#EA8823" stroke="#343433" stroke-width="0.961" stroke-miterlimit="10" d="M810.602,97.598
		c1.99-1.83,2.604-4.397,1.377-5.74c-1.229-1.351-3.85-0.958-5.845,0.866c-1.99,1.828-2.607,4.395-1.377,5.739
		C805.987,99.814,808.604,99.42,810.602,97.598L810.602,97.598z"/>
	
		<ellipse transform="matrix(-0.1668 -0.986 0.986 -0.1668 851.3771 919.3664)" fill="#FCEB84" stroke="#2D2E2D" stroke-width="0.993" stroke-miterlimit="10" cx="814.154" cy="99.946" rx="5.092" ry="6.023"/>
</g>
<g>
	<path fill="#2B3420" stroke="#234320" stroke-width="1.405" stroke-miterlimit="10" d="M420.524,133.322
		c0,0-3.12-22.787-2.967-36.365"/>
	
		<ellipse transform="matrix(-0.7547 0.6561 -0.6561 -0.7547 771.7426 -106.7829)" fill="#F5F9EF" stroke="#343433" stroke-width="0.936" stroke-miterlimit="10" cx="405.835" cy="90.892" rx="4.448" ry="3.454"/>
	<path fill="#F5F9EF" stroke="#343433" stroke-width="1.057" stroke-miterlimit="10" d="M407.972,94.644
		c-0.44,2.665,0.967,5.118,3.146,5.479c2.177,0.362,4.304-1.507,4.747-4.17c0.44-2.667-0.966-5.118-3.146-5.479
		C410.542,90.111,408.415,91.978,407.972,94.644L407.972,94.644z"/>
	<path fill="#F5F9EF" stroke="#343433" stroke-width="1.114" stroke-miterlimit="10" d="M416.875,95.947
		c1.644,2.39,4.5,3.272,6.387,1.977c1.886-1.295,2.085-4.281,0.445-6.668c-1.645-2.39-4.5-3.272-6.387-1.979
		C415.43,90.572,415.234,93.56,416.875,95.947L416.875,95.947z"/>
	<path fill="#F5F9EF" stroke="#343433" stroke-width="1.114" stroke-miterlimit="10" d="M422.278,89.628
		c2.624,1.228,5.535,0.543,6.507-1.526c0.973-2.07-0.367-4.75-2.989-5.979c-2.626-1.229-5.538-0.545-6.511,1.525
		C418.312,85.721,419.655,88.398,422.278,89.628z"/>
	<path fill="#F5F9EF" stroke="#343433" stroke-width="0.917" stroke-miterlimit="10" d="M417.06,82.525
		c2.427,0.49,4.683-0.553,5.044-2.326c0.36-1.778-1.314-3.622-3.74-4.114c-2.428-0.489-4.684,0.554-5.045,2.33
		C412.955,80.195,414.634,82.035,417.06,82.525L417.06,82.525z"/>
	<path fill="#F5F9EF" stroke="#343433" stroke-width="0.961" stroke-miterlimit="10" d="M410.874,84.144
		c1.99-1.83,2.605-4.396,1.378-5.74c-1.229-1.348-3.85-0.957-5.844,0.867c-1.99,1.83-2.608,4.396-1.378,5.74
		C406.26,86.361,408.878,85.967,410.874,84.144L410.874,84.144z"/>
	
		<ellipse transform="matrix(-0.1667 -0.986 0.986 -0.1667 398.2568 509.5105)" fill="#FCEB84" stroke="#2D2E2D" stroke-width="0.993" stroke-miterlimit="10" cx="414.418" cy="86.475" rx="5.092" ry="6.023"/>
</g>
<g>
	<path fill="#E1CF87" stroke="#030303" stroke-width="0.913" stroke-miterlimit="10" d="M331.503,186.725l-1.111-44.681
		l10.014-26.668l13.908,25.334l11.126-22.667l11.126,22.668l15.02-29.333l13.908,22l12.238-17.334l9.457,22l17.802-22l12.793,20
		l11.127-20l12.238,21.334l14.464-17.334l12.24,20.668l13.906-19.333l13.907,16.666l10.568-18l12.24,18l10.57-17.332l11.126,20
		l15.575-21.333l13.906,18.666l11.127-16l15.575,19.334l14.463-20.666l12.24,20l-1.67,45.335"/>
	<path fill="none" stroke="#030303" stroke-width="0.913" stroke-miterlimit="10" d="M354.312,140.71l-1.112,40 M376.564,140.71
		l-1.67,41.335 M405.492,133.377l-2.225,46.668 M427.187,138.043v41.334 M457.783,136.043l-1.668,42.668 M481.148,137.377
		l-1.668,42.668 M507.852,140.71v38.667 M535.666,138.043l-0.557,46.002 M558.475,138.043v44.668 M580.171,140.71l-0.558,44
		 M609.652,138.043l-2.78,46.668 M636.078,140.71l-0.557,47.335"/>
</g>
<g>
	<path fill="#59763C" stroke="#234320" stroke-width="0.936" stroke-miterlimit="10" d="M299.155,177.947
		c1.17-2.4,4.916-8.137,7.14-11.063c2.226-2.926-10.886,10.945-12.173,12.644s-0.233,0.234-1.346-0.586
		c-1.112-0.817-20.544-19.08-15.98-13.46c4.565,5.62,10.126,11.235,11.647,15.04c1.521,3.804,1.697,6.029,1.697,6.029l9.6-1.872
		C299.74,184.678,297.985,180.348,299.155,177.947L299.155,177.947z"/>
	<path fill="#7DA25E" stroke="#234320" stroke-width="0.936" stroke-miterlimit="10" d="M299.74,184.678c0,0,2.225-6.32,7.49-9.365
		c5.27-3.043-0.622-1.834-8.311,3.59c-1.873,1.854-3.16,4.72-4.72,4.955c-1.562,0.233-3.006-0.937-7.103-3.396
		c-4.099-2.457-14.28-8.31-9.833-4.682c4.446,3.628,12.407,7.726,12.876,10.77C290.786,185.966,299.74,184.679,299.74,184.678
		L299.74,184.678z"/>
	<path fill="#2B3420" stroke="#234320" stroke-width="1.405" stroke-miterlimit="10" d="M293.653,183.428
		c0,0-3.12-22.785-2.965-36.363"/>
	
		<ellipse transform="matrix(-0.7546 0.6562 -0.6562 -0.7546 581.9965 64.3688)" fill="#BB3827" stroke="#343433" stroke-width="0.936" stroke-miterlimit="10" cx="278.963" cy="141.005" rx="4.448" ry="3.454"/>
	<path fill="#BB3827" stroke="#343433" stroke-width="1.057" stroke-miterlimit="10" d="M281.102,144.75
		c-0.44,2.666,0.967,5.117,3.146,5.48c2.179,0.359,4.306-1.506,4.746-4.168c0.443-2.668-0.965-5.12-3.146-5.482
		C283.669,140.22,281.543,142.086,281.102,144.75L281.102,144.75z"/>
	<path fill="#BB3827" stroke="#343433" stroke-width="1.114" stroke-miterlimit="10" d="M290.004,146.055
		c1.644,2.387,4.5,3.27,6.388,1.977c1.885-1.295,2.085-4.283,0.443-6.67c-1.644-2.39-4.5-3.271-6.387-1.978
		C288.562,140.678,288.365,143.668,290.004,146.055L290.004,146.055z"/>
	<path fill="#BB3827" stroke="#343433" stroke-width="1.114" stroke-miterlimit="10" d="M295.407,139.736
		c2.625,1.227,5.535,0.543,6.508-1.53c0.973-2.066-0.368-4.75-2.99-5.978c-2.625-1.23-5.536-0.545-6.508,1.526
		C291.442,135.828,292.785,138.505,295.407,139.736L295.407,139.736z"/>
	<path fill="#BB3827" stroke="#343433" stroke-width="0.917" stroke-miterlimit="10" d="M290.19,132.633
		c2.428,0.488,4.682-0.555,5.045-2.327c0.36-1.775-1.315-3.62-3.742-4.11s-4.684,0.552-5.043,2.33
		C286.085,130.301,287.764,132.141,290.19,132.633z"/>
	<path fill="#BB3827" stroke="#343433" stroke-width="0.961" stroke-miterlimit="10" d="M284.002,134.25
		c1.99-1.83,2.605-4.395,1.38-5.737c-1.229-1.351-3.85-0.96-5.845,0.864c-1.99,1.83-2.606,4.396-1.378,5.742
		C279.389,136.469,282.007,136.073,284.002,134.25L284.002,134.25z"/>
	
		<ellipse transform="matrix(-0.1667 -0.986 0.986 -0.1667 200.8613 442.8524)" fill="#FCEB84" stroke="#2D2E2D" stroke-width="0.993" stroke-miterlimit="10" cx="287.557" cy="136.552" rx="5.09" ry="6.022"/>
</g>
<g>
	<path fill="#59763C" stroke="#234320" stroke-width="0.5" stroke-miterlimit="10" d="M506.961,171.053
		c-0.178-0.033-0.864,8.289-1.104,9.135c-0.242,0.846,1.283,9.057,1.283,9.057l0.604-9.18c0,0,0.004-4.822-0.065-5.771
		C507.607,173.348,507.137,171.085,506.961,171.053z M499.803,168.605c0,0-4.938-3.058-5.136-2.783
		c-0.2,0.275,3.154,3.553,4.207,5.293c1.06,1.754,3.571,9.695,3.934,10.582l2.918,7.16L499.803,168.605z"/>
	<path fill="#6A9877" stroke="#303E33" stroke-width="0.5" stroke-miterlimit="10" d="M508.051,186.086
		c0,0,1.819-15.764,1.847-18.282c1.188-1.384,1.264-0.152,1.264-0.152l-2.298,17.939l-0.81,0.496L508.051,186.086z"/>
	<path fill="#7DA25E" stroke="#234320" stroke-width="0.5" stroke-miterlimit="10" d="M509.47,185.313c0,0,0.859-13.527,2.22-15.84
		c2.832-0.099,7.525,14.307,7.269,13.859c-1.351-2.335-6.304-9.093-6.582-8.228c-0.438,1.352-2.187,6.836-1.724,9.436
		L509.47,185.313L509.47,185.313z"/>
	<path fill="#6A9877" stroke="#303E33" stroke-width="0.5" stroke-miterlimit="10" d="M506.166,189.98
		c-1.38-2.965-7.737-25.313-7.055-25.047c0.229-0.933-0.175-0.457,0.51-0.259c0.684,0.203,5.993,23.938,6.774,25.091
		c0.781,1.151,1.153,3.18-0.228,0.215H506.166z M506.89,189.768c0,0-3.99-14.179-3.18-19.453c0.81-5.273,1.515-8.287,2.062-8.894
		c0.547-0.604,0.172-0.321,0.55,0.353s-0.894,3.901-1.29,8.666C504.636,175.204,506.889,189.768,506.89,189.768L506.89,189.768z"/>
	<path fill="#928772" stroke="#30302F" stroke-width="0.5" stroke-miterlimit="10" d="M505.593,158.895
		c1.029-2.912,1.575-3.474,2.385-3.937c0.81-0.466,0.71-0.16,0.838,0.884c0.128,1.045-0.074,2.607-0.44,3.476
		c-0.365,0.866-0.685,2.247-1.246,2.946C506.563,162.964,504.561,161.804,505.593,158.895L505.593,158.895z"/>
	<path fill="#9A9383" stroke="#30302F" stroke-width="0.5" stroke-miterlimit="10" d="M511.12,162.523
		c1.194-2.252,3.272-6.04,3.272-6.04s1.373-1.798,2.863-1.314c1.487,0.48-2.914,7.681-4.091,9.516
		c-1.174,1.834-1.223,2.477-2.006,2.965c-0.782,0.488-1.38,0.504-1.72-0.008c-0.338-0.511,0.488-2.865,1.68-5.12L511.12,162.523z"/>
</g>
<g>
	<path fill="#59763C" stroke="#234320" stroke-width="0.507" stroke-miterlimit="10" d="M44.03,175.71c0,0,0.53-9.177,2.437-19.054
		c0.705-3.65,0.586-4.477-0.46-0.988c-2.646,8.832-2.989,16.457-3.911,22.773c-0.825,5.663-1.351,0.655-1.351,0.655
		s-1.731-13.726-2.654-18.408c-0.92-4.685-1.25-4.576-0.588,0.326c0.662,4.901,1.29,20.369,1.29,20.369s-2.174-3.052-2.689-4.468
		c-0.517-1.416-1.584-1.307-0.7,0.328c0.884,1.633,2.358,8.387,2.358,8.387l4.458,0.658L44.03,175.71L44.03,175.71z"/>
	<path fill="#7DA25E" stroke="#234320" stroke-width="0.5" stroke-miterlimit="10" d="M46.763,185.725
		c0.895-2.313,4.229-5.771,4.229-5.771s0.458-0.417-0.292-0.417s-5.138,4.96-5.138,4.96s-0.088,0.34-0.138,0.141
		c-0.286-1.193,6.94-16.185,6.94-16.185s0.21-0.584-0.5-0.29c-0.706,0.29-9.413,12.567-11.29,17.376"/>
</g>
<path fill="none" stroke="#2D2E2D" stroke-width="0.5" stroke-miterlimit="10" d="M428.635,84.607l-0.44,1.062l1.125,1.553
	l0.375,2.5"/>
<ellipse transform="matrix(-0.7492 0.6623 -0.6623 -0.7492 782.6575 -135.198)" fill="#2D2E2D" cx="416.924" cy="80.569" rx="2.05" ry="1.344"/>
<ellipse transform="matrix(0.6978 0.7163 -0.7163 0.6978 182.7437 -273.9434)" fill="#2D2E2D" cx="416.049" cy="79.615" rx="0.715" ry="0.887"/>
<path fill="none" stroke="#2D2E2D" stroke-width="0.5" stroke-miterlimit="10" d="M415.248,79.472l-2.563-0.964V76.57
	 M416.445,78.802l-0.39-1.294l-1.433-0.938 M419.51,87.277v1.481l0.85,1.101l-0.725,2.93 M423.438,89.144l-0.44,1.06l1.125,1.555
	l0.375,2.5 M416.948,84.54l-0.893,0.971l0.338,1.767l-1.23,2.022"/>
<ellipse transform="matrix(0.2653 -0.9642 0.9642 0.2653 230.8626 469.3835)" fill="#BA2F27" stroke="#2D2E2D" stroke-width="0.25" stroke-miterlimit="10" cx="423.408" cy="83.216" rx="3.459" ry="6.25"/>
<ellipse transform="matrix(0.4847 -0.8747 0.8747 0.4847 143.3087 412.9965)" fill="#BA2F27" stroke="#2D2E2D" stroke-width="0.25" stroke-miterlimit="10" cx="422.167" cy="84.871" rx="3.459" ry="6.25"/>
<ellipse fill="#311811" cx="418.913" cy="82.431" rx="0.653" ry="0.557"/>
<path fill="#311811" d="M423.87,83.68c-0.224,0.479-0.909,0.632-1.523,0.34c-0.618-0.29-0.934-0.915-0.708-1.395
	c0.228-0.479,0.91-0.633,1.53-0.342C423.782,82.576,424.098,83.201,423.87,83.68L423.87,83.68z"/>
<ellipse fill="#311811" cx="423.343" cy="86.8" rx="1.178" ry="0.959"/>
<ellipse fill="#311811" cx="422.717" cy="79.953" rx="0.422" ry="0.234"/>
<ellipse transform="matrix(0.2648 -0.9643 0.9643 0.2648 233.8362 469.1971)" fill="#311811" cx="424.614" cy="81.251" rx="0.474" ry="0.671"/>
<ellipse fill="#311811" cx="428.393" cy="84.027" rx="0.704" ry="0.684"/>
<g>
	<path opacity="0.7" fill="#FFFFFF" enable-background="new    " d="M128.675,85.845c0,1.743-0.764,3.088-1.653,3.088
		c-0.894,0-2.397-1.666-2.694-3.313c-0.31-1.717-0.71-3.084,2.035-3.084c0.892,0,2.315,1.565,2.315,3.311L128.675,85.845z"/>
	<path fill="#292725" d="M122.527,95.71l-2.25-0.109l2.108-0.79"/>
	<path fill="#F8D888" stroke="#312F26" stroke-width="0.608" stroke-linecap="round" stroke-miterlimit="10" d="M122.212,95.265
		c0.677,2.473,4.969,3.125,9.046,2c4.078-1.126,7.063-2.351,6.158-6.516c-0.544-2.506-4.529-3.563-8.609-2.439
		C124.728,89.435,121.534,92.792,122.212,95.265z"/>
	<path fill="none" stroke="#312F26" stroke-linecap="round" stroke-miterlimit="10" d="M129,88.554
		c-0.723,4.002,1.83,8.55,1.83,8.55"/>
	<path fill="none" stroke="#292725" stroke-linecap="round" stroke-miterlimit="10" d="M127.233,89.296
		c-0.514,1.646,0.84,7.153,1.82,8.054 M125.388,90.158c-0.521,2.67,1.436,7.264,2.029,7.32 M123.635,91.636
		c-0.246,2.479,1.994,5.842,1.994,5.842"/>
	<path fill="none" stroke="#292725" stroke-width="0.75" stroke-linecap="round" stroke-miterlimit="10" d="M122.468,93.427
		c-0.149,1.442,1.177,3.479,1.177,3.479"/>
	<path fill="none" stroke="#312F26" stroke-width="0.304" stroke-linecap="round" stroke-miterlimit="10" d="M135.163,93.037
		c0,0-0.2,0.79-1.168,0.78c-0.97-0.007-1.094-0.78-1.094-0.78"/>
	
		<ellipse transform="matrix(0.0879 0.9961 -0.9961 0.0879 210.6411 -49.6338)" fill="#312F26" cx="132.424" cy="90.206" rx="0.3" ry="0.485"/>
	
		<ellipse transform="matrix(0.1366 0.9906 -0.9906 0.1366 206.0792 -57.2358)" fill="#312F26" cx="135.876" cy="89.61" rx="0.3" ry="0.485"/>
	<ellipse fill="#312F26" cx="136.643" cy="86.033" rx="0.634" ry="0.561"/>
	<ellipse fill="#312F26" cx="135.164" cy="84.683" rx="0.596" ry="0.563"/>
	<path fill="none" stroke="#312F26" stroke-width="0.304" stroke-linecap="round" stroke-miterlimit="10" d="M136.43,86.457
		l-1.094,1.71 M134.89,85.246l-0.323,2.72 M134.318,96.756l0.572,1.248 M134.89,98.004l-0.225,0.486"/>
	<g>
		<path fill="none" stroke="#312F26" stroke-width="0.304" stroke-linecap="round" stroke-miterlimit="10" d="M132.707,97.137
			l0.573,1.248 M133.478,98.912l-4.894-3.745"/>
	</g>
	<g>
		<path fill="none" stroke="#312F26" stroke-width="0.304" stroke-linecap="round" stroke-miterlimit="10" d="M130.377,97.623
			l0.572,1.248 M130.95,98.87l-0.225,0.487"/>
	</g>
	<g>
		<path fill="none" stroke="#312F26" stroke-width="0.304" stroke-linecap="round" stroke-miterlimit="10" d="M128.585,97.855
			l0.57,1.25 M129.156,99.104l-0.223,0.485"/>
	</g>
	<path opacity="0.7" fill="#FFFFFF" enable-background="new    " d="M125.783,86.11c1.325,1.128,1.854,2.583,1.277,3.267
		c-0.577,0.685-2.815,0.761-4.261-0.078c-1.505-0.871-2.8-1.449-1.025-3.552C122.351,85.063,124.458,84.983,125.783,86.11
		L125.783,86.11z"/>
</g>
<g>
	<path opacity="0.7" fill="#FFFFFF" enable-background="new    " d="M297.547,41.571c0,2.726,1.16,4.82,2.514,4.82
		c1.357,0,3.645-2.598,4.095-5.17c0.471-2.681,1.078-4.815-3.092-4.815C299.709,36.406,297.547,38.846,297.547,41.571
		L297.547,41.571z"/>
	<path fill="#292725" d="M307.107,55.577l3.2,1.228l-3.423,0.16"/>
	<path fill="#F8D888" stroke="#312F26" stroke-width="0.936" stroke-linecap="round" stroke-miterlimit="10" d="M307.367,56.282
		c-1.028,3.86-7.548,4.88-13.742,3.118c-6.196-1.756-10.728-3.665-9.354-10.17c0.826-3.915,6.883-5.568,13.08-3.812
		C303.545,47.181,308.396,52.422,307.367,56.282L307.367,56.282z"/>
	<path fill="none" stroke="#312F26" stroke-width="1.54" stroke-linecap="round" stroke-miterlimit="10" d="M297.057,45.803
		c1.095,6.25-2.78,13.35-2.78,13.35"/>
	<path fill="none" stroke="#292725" stroke-width="1.54" stroke-linecap="round" stroke-miterlimit="10" d="M299.737,46.96
		c0.78,2.569-1.273,11.17-2.763,12.574 M302.542,48.305c0.79,4.17-2.181,11.344-3.085,11.433 M305.204,50.614
		c0.374,3.873-3.03,9.124-3.03,9.124"/>
	<path fill="none" stroke="#292725" stroke-width="1.155" stroke-linecap="round" stroke-miterlimit="10" d="M306.977,53.411
		c0.23,2.253-1.786,5.435-1.786,5.435"/>
	<path fill="none" stroke="#312F26" stroke-width="0.468" stroke-linecap="round" stroke-miterlimit="10" d="M287.691,52.803
		c0,0,0.304,1.229,1.774,1.217c1.476-0.01,1.663-1.217,1.663-1.217"/>
	
		<ellipse transform="matrix(0.0907 -0.9959 0.9959 0.0907 217.2026 334.6689)" fill="#312F26" cx="291.873" cy="48.39" rx="0.468" ry="0.737"/>
	<path fill="#312F26" d="M287.327,47.554c-0.035,0.257-0.389,0.416-0.792,0.361c-0.404-0.06-0.702-0.313-0.671-0.569
		c0.038-0.254,0.391-0.416,0.793-0.36C287.062,47.045,287.36,47.3,287.327,47.554L287.327,47.554z M286.406,41.864
		c0,0.483-0.43,0.877-0.96,0.877c-0.534,0-0.965-0.394-0.965-0.877c0-0.484,0.431-0.877,0.965-0.877
		C285.977,40.987,286.406,41.378,286.406,41.864z"/>
	<ellipse fill="#312F26" cx="287.691" cy="39.759" rx="0.906" ry="0.877"/>
	<path fill="none" stroke="#312F26" stroke-width="0.468" stroke-linecap="round" stroke-miterlimit="10" d="M285.767,42.527
		l1.66,2.668 M288.107,40.635l0.49,4.25 M288.977,58.607l-0.87,1.95 M288.107,60.557l0.34,0.762"/>
	<g>
		<path fill="none" stroke="#312F26" stroke-width="0.468" stroke-linecap="round" stroke-miterlimit="10" d="M291.423,59.201
			l-0.87,1.95 M290.253,61.974l7.432-5.846"/>
	</g>
	<g>
		<path fill="none" stroke="#312F26" stroke-width="0.468" stroke-linecap="round" stroke-miterlimit="10" d="M294.963,59.962
			l-0.87,1.949 M294.093,61.91l0.34,0.761"/>
	</g>
	<g>
		<path fill="none" stroke="#312F26" stroke-width="0.468" stroke-linecap="round" stroke-miterlimit="10" d="M297.685,60.324
			l-0.868,1.95 M296.817,62.273l0.34,0.76"/>
	</g>
	<path opacity="0.7" fill="#FFFFFF" enable-background="new    " d="M301.942,41.987c-2.015,1.76-2.816,4.03-1.939,5.099
		c0.876,1.069,4.275,1.188,6.472-0.12c2.284-1.36,4.253-2.265,1.558-5.547C307.156,40.352,303.955,40.228,301.942,41.987
		L301.942,41.987z"/>
</g>
<path fill="#59763C" stroke="#234320" stroke-width="0.5" stroke-miterlimit="10" d="M944.298,176.492c0,0,0.899-5.266,4.135-10.932
	c1.194-2.097,0.992-2.57-0.78-0.568c-4.49,5.068-5.073,9.443-6.636,13.068c-1.4,3.248-2.29,0.375-2.29,0.375s-2.94-7.875-4.5-10.563
	c-1.561-2.688-2.126-2.625-1,0.188c1.126,2.813,2.187,11.688,2.187,11.688s-3.688-1.75-4.563-2.563
	c-0.875-0.813-2.688-0.75-1.188,0.188c1.5,0.938,4,4.813,4,4.813l7.563,0.377L944.298,176.492L944.298,176.492z"/>
<path fill="#7DA25E" stroke="#234320" stroke-width="0.5" stroke-miterlimit="10" d="M946.787,182.998
	c0.896-2.313,4.23-5.77,4.23-5.77s0.458-0.417-0.292-0.417s-5.14,4.96-5.14,4.96s-0.088,0.342-0.137,0.14
	c-0.288-1.191,6.94-16.183,6.94-16.183s0.21-0.584-0.5-0.29c-0.707,0.29-9.414,12.566-11.29,17.376"/>
<path fill="#59763C" stroke="#234320" stroke-width="0.507" stroke-miterlimit="10" d="M710.2,172.162c0,0,0.53-9.176,2.438-19.053
	c0.705-3.65,0.586-4.479-0.46-0.99c-2.646,8.833-2.99,16.458-3.91,22.774c-0.827,5.662-1.354,0.653-1.354,0.653
	s-1.729-13.725-2.651-18.407c-0.92-4.685-1.252-4.576-0.59,0.325c0.664,4.902,1.29,20.37,1.29,20.37s-2.174-3.052-2.69-4.468
	c-0.516-1.416-1.584-1.307-0.7,0.328c0.886,1.633,2.358,8.387,2.358,8.387l4.46,0.658L710.2,172.162L710.2,172.162z"/>
<path fill="#7DA25E" stroke="#234320" stroke-width="0.5" stroke-miterlimit="10" d="M712.934,182.178
	c0.895-2.313,4.229-5.771,4.229-5.771s0.458-0.417-0.292-0.417s-5.14,4.96-5.14,4.96s-0.087,0.342-0.136,0.14
	c-0.287-1.191,6.939-16.183,6.939-16.183s0.21-0.584-0.5-0.29c-0.706,0.29-9.413,12.567-11.29,17.376"/>
<g>
	<path opacity="0.7" fill="#FFFFFF" enable-background="new    " d="M733.762,55.872c0,3.246-1.382,5.744-2.993,5.744
		c-1.617,0-4.342-3.097-4.877-6.16c-0.563-3.192-1.287-5.736,3.68-5.736C731.187,49.717,733.762,52.627,733.762,55.872
		L733.762,55.872z"/>
	<path fill="#292725" d="M722.643,74.208l-4.078-0.189l3.813-1.46"/>
	<path fill="#F8D888" stroke="#312F26" stroke-width="1.115" stroke-linecap="round" stroke-miterlimit="10" d="M722.067,73.396
		c1.226,4.6,8.99,5.813,16.37,3.716c7.38-2.092,12.778-4.367,11.144-12.117c-0.982-4.663-8.199-6.632-15.581-4.54
		c-7.378,2.099-13.158,8.34-11.931,12.94L722.067,73.396z"/>
	<path fill="none" stroke="#312F26" stroke-width="1.835" stroke-linecap="round" stroke-miterlimit="10" d="M734.35,60.914
		c-1.306,7.443,3.31,15.902,3.31,15.902"/>
	<path fill="none" stroke="#292725" stroke-width="1.835" stroke-linecap="round" stroke-miterlimit="10" d="M731.154,62.29
		c-0.93,3.064,1.521,13.311,3.29,14.98 M727.815,63.894c-0.94,4.97,2.596,13.514,3.673,13.62 M724.642,66.644
		c-0.445,4.612,3.612,10.87,3.612,10.87"/>
	<path fill="none" stroke="#292725" stroke-width="1.376" stroke-linecap="round" stroke-miterlimit="10" d="M722.53,69.977
		c-0.272,2.685,2.128,6.473,2.128,6.473"/>
	<path fill="none" stroke="#312F26" stroke-width="0.557" stroke-linecap="round" stroke-miterlimit="10" d="M745.506,69.252
		c0,0-0.36,1.463-2.113,1.45c-1.758-0.014-1.98-1.45-1.98-1.45"/>
	
		<ellipse transform="matrix(0.0901 0.9959 -0.9959 0.0901 737.5157 -679.2831)" fill="#312F26" cx="740.529" cy="64" rx="0.558" ry="0.879"/>
	<path fill="#312F26" d="M745.94,63c0.04,0.307,0.46,0.495,0.94,0.433c0.479-0.07,0.838-0.372,0.798-0.681
		c-0.043-0.3-0.464-0.494-0.943-0.428C746.258,62.394,745.9,62.697,745.94,63L745.94,63z M747.035,56.22
		c0,0.574,0.513,1.045,1.145,1.045c0.637,0,1.147-0.471,1.147-1.045c0-0.578-0.512-1.045-1.149-1.045
		C747.548,55.176,747.034,55.642,747.035,56.22L747.035,56.22z"/>
	<ellipse fill="#312F26" cx="745.506" cy="53.712" rx="1.078" ry="1.045"/>
	<path fill="none" stroke="#312F26" stroke-width="0.557" stroke-linecap="round" stroke-miterlimit="10" d="M747.799,57.008
		l-1.98,3.181 M745.01,54.757l-0.584,5.063 M743.975,76.167l1.035,2.322 M745.01,78.49l-0.405,0.907"/>
	<g>
		<path fill="none" stroke="#312F26" stroke-width="0.557" stroke-linecap="round" stroke-miterlimit="10" d="M741.06,76.875
			l1.038,2.322 M742.453,80.178l-8.853-6.966"/>
	</g>
	<g>
		<path fill="none" stroke="#312F26" stroke-width="0.557" stroke-linecap="round" stroke-miterlimit="10" d="M736.843,77.78
			l1.036,2.322 M737.879,80.102l-0.405,0.903"/>
	</g>
	<g>
		<path fill="none" stroke="#312F26" stroke-width="0.557" stroke-linecap="round" stroke-miterlimit="10" d="M733.6,78.212
			l1.034,2.323 M734.635,80.535l-0.405,0.904"/>
	</g>
	<path opacity="0.7" fill="#FFFFFF" enable-background="new    " d="M728.528,56.367c2.4,2.096,3.356,4.803,2.313,6.073
		c-1.044,1.273-5.095,1.414-7.708-0.144c-2.721-1.619-5.07-2.696-1.855-6.609C722.317,54.417,726.133,54.271,728.528,56.367
		L728.528,56.367z"/>
</g>
<g>
	<path fill="#E1CF87" stroke="#030303" stroke-width="0.913" stroke-miterlimit="10" d="M661.921,186.066l-1.11-44.68l10.01-26.671
		l13.91,25.335l11.125-22.667l11.125,22.669L722,110.719l13.908,22l12.238-17.335l9.458,22l17.802-22l12.793,20l11.126-20
		l12.238,21.335l14.465-17.335l12.238,20.669l13.908-19.333l13.905,16.666l10.57-18l12.24,18l10.57-17.332l11.124,20l15.575-21.333
		l13.908,18.666l11.125-16l15.578,19.334l14.463-20.666l12.24,20v45.335"/>
	<path fill="none" stroke="#030303" stroke-width="0.913" stroke-miterlimit="10" d="M684.73,140.05l-1.113,40 M706.98,140.05
		l-1.667,41.336 M735.908,132.717l-2.224,46.668 M757.604,137.383v41.334 M788.2,135.383l-1.67,42.668 M811.564,136.717
		l-1.668,42.668 M838.268,140.05v38.667 M866.082,137.383l-0.555,46.002 M888.89,137.383v44.668 M910.587,140.05l-0.558,44
		 M940.07,137.383l-2.78,46.668 M966.494,140.05l-0.556,47.336"/>
</g>
<g>
	<path fill="none" stroke="#2D2E2D" stroke-width="0.526" stroke-miterlimit="10" d="M828.093,95.248l-0.466,1.12L828.813,98
		l0.394,2.63"/>
	
		<ellipse transform="matrix(-0.7491 0.6625 -0.6625 -0.7491 1487.1301 -381.2465)" fill="#2D2E2D" cx="815.763" cy="91.001" rx="2.159" ry="1.415"/>
	<path fill="#2D2E2D" d="M814.177,90.635c0.29,0.298,0.826,0.246,1.194-0.113c0.372-0.36,0.436-0.894,0.146-1.19
		c-0.29-0.298-0.824-0.25-1.195,0.113c-0.367,0.36-0.433,0.892-0.144,1.19H814.177z"/>
	<path fill="none" stroke="#2D2E2D" stroke-width="0.526" stroke-miterlimit="10" d="M813.996,89.84l-2.699-1.012v-2.04
		 M815.257,89.136l-0.408-1.36l-1.51-0.988 M818.482,98.06v1.56l0.897,1.157l-0.766,3.084 M822.62,100.025l-0.466,1.116l1.187,1.64
		l0.394,2.63 M815.787,95.178l-0.939,1.02l0.355,1.86l-1.297,2.13"/>
	
		<ellipse transform="matrix(0.2652 -0.9642 0.9642 0.2652 514.0574 862.0477)" fill="#BA2F27" stroke="#2D2E2D" stroke-width="0.263" stroke-miterlimit="10" cx="822.6" cy="93.761" rx="3.642" ry="6.58"/>
	
		<ellipse transform="matrix(0.4847 -0.8747 0.8747 0.4847 339.6902 767.6016)" fill="#BA2F27" stroke="#2D2E2D" stroke-width="0.263" stroke-miterlimit="10" cx="821.304" cy="95.508" rx="3.641" ry="6.58"/>
	<ellipse fill="#311811" cx="817.855" cy="92.958" rx="0.688" ry="0.586"/>
	
		<ellipse transform="matrix(0.4274 -0.9041 0.9041 0.4274 385.8661 796.7119)" fill="#311811" cx="821.871" cy="93.747" rx="1.01" ry="1.3"/>
	<ellipse fill="#311811" cx="822.52" cy="97.557" rx="1.24" ry="1.01"/>
	<ellipse fill="#311811" cx="821.858" cy="90.347" rx="0.444" ry="0.247"/>
	
		<ellipse transform="matrix(0.265 -0.9642 0.9642 0.265 517.106 861.823)" fill="#311811" cx="823.879" cy="91.708" rx="0.499" ry="0.707"/>
	<ellipse fill="#311811" cx="827.837" cy="94.637" rx="0.741" ry="0.72"/>
</g>
<g>
	<path fill="#59763C" stroke="#234320" stroke-width="0.936" stroke-miterlimit="10" d="M944.778,179.302
		c-0.981-2.482-4.274-8.489-6.266-11.581c-1.992-3.087,10.012,11.751,11.163,13.544c1.154,1.791,0.216,0.251,1.388-0.48
		c1.173-0.732,21.953-17.444,16.969-12.193c-4.983,5.252-10.96,10.426-12.771,14.104c-1.811,3.676-2.155,5.878-2.155,5.878
		l-9.427-2.605c0,0,2.088-4.183,1.104-6.665H944.778z"/>
	<path fill="#7DA25E" stroke="#234320" stroke-width="0.936" stroke-miterlimit="10" d="M943.677,185.967
		c0,0-1.731-6.473-6.749-9.911c-5.016-3.441,0.765-1.781,8.012,4.218c1.721,1.991,2.786,4.953,4.324,5.303
		c1.536,0.357,3.066-0.698,7.342-2.836c4.272-2.136,14.879-7.188,10.164-3.909c-4.717,3.272-12.966,6.746-13.668,9.743
		C952.508,187.941,943.677,185.968,943.677,185.967L943.677,185.967z"/>
	<path fill="#2B3420" stroke="#234320" stroke-width="1.405" stroke-miterlimit="10" d="M949.843,185.191
		c0,0,4.866-22.479,5.757-36.027"/>
	<path fill="#F5F9EF" stroke="#343433" stroke-width="0.936" stroke-miterlimit="10" d="M970.216,141.611
		c1.723,1.752,2.021,4.255,0.661,5.594c-1.357,1.336-3.856,1.005-5.581-0.745c-1.723-1.75-2.02-4.253-0.66-5.592
		c1.356-1.341,3.854-1.006,5.581,0.745L970.216,141.611z"/>
	<path fill="#F5F9EF" stroke="#343433" stroke-width="1.057" stroke-miterlimit="10" d="M965.337,147.595
		c0.234,2.69-1.358,5.027-3.562,5.22c-2.197,0.194-4.176-1.833-4.414-4.521c-0.233-2.694,1.357-5.029,3.56-5.222
		C963.123,142.878,965.098,144.903,965.337,147.595z"/>
	<path fill="#F5F9EF" stroke="#343433" stroke-width="1.114" stroke-miterlimit="10" d="M956.36,148.207
		c-1.823,2.256-4.741,2.916-6.521,1.479s-1.748-4.43,0.07-6.682c1.822-2.256,4.738-2.918,6.518-1.479
		c1.784,1.435,1.752,4.429-0.068,6.682L956.36,148.207z"/>
	<path fill="#F5F9EF" stroke="#343433" stroke-width="1.114" stroke-miterlimit="10" d="M951.459,141.495
		c-2.711,1.021-5.561,0.112-6.371-2.024c-0.81-2.138,0.733-4.708,3.441-5.731c2.713-1.023,5.563-0.116,6.372,2.022
		c0.814,2.141-0.732,4.709-3.44,5.734L951.459,141.495z"/>
	<path fill="#F5F9EF" stroke="#343433" stroke-width="0.917" stroke-miterlimit="10" d="M957.207,134.811
		c-2.457,0.302-4.626-0.911-4.851-2.706c-0.225-1.8,1.59-3.509,4.047-3.813c2.457-0.302,4.626,0.912,4.851,2.713
		C961.48,132.805,959.661,134.51,957.207,134.811z"/>
	<path fill="#F5F9EF" stroke="#343433" stroke-width="0.961" stroke-miterlimit="10" d="M963.251,136.903
		c-1.844-1.979-2.26-4.585-0.934-5.829c1.331-1.25,3.911-0.658,5.76,1.314c1.846,1.978,2.262,4.582,0.931,5.83
		c-1.33,1.25-3.909,0.656-5.759-1.315H963.251z"/>
	<path fill="#FCEB84" stroke="#2D2E2D" stroke-width="0.993" stroke-miterlimit="10" d="M953.698,137.475
		c-0.683,2.729,1.383,5.594,4.609,6.398c3.23,0.809,6.397-0.753,7.077-3.48c0.681-2.728-1.385-5.589-4.61-6.398
		c-3.227-0.803-6.396,0.752-7.074,3.481L953.698,137.475z"/>
</g>
<g>
	<path fill="#59763C" stroke="#234320" stroke-width="0.936" stroke-miterlimit="10" d="M682.912,178.076
		c-1.17-2.4-4.916-8.137-7.14-11.063s10.886,10.945,12.173,12.644c1.287,1.697,0.234,0.234,1.346-0.585
		c1.113-0.818,20.546-19.08,15.98-13.461c-4.565,5.618-10.126,11.235-11.646,15.04c-1.521,3.806-1.697,6.03-1.697,6.03l-9.601-1.874
		c-0.002,0,1.755-4.33,0.584-6.729L682.912,178.076z"/>
	<path fill="#7DA25E" stroke="#234320" stroke-width="0.936" stroke-miterlimit="10" d="M682.326,184.805
		c0,0-2.223-6.32-7.489-9.364c-5.269-3.043,0.623-1.834,8.31,3.591c1.874,1.854,3.163,4.72,4.722,4.954
		c1.561,0.235,3.007-0.935,7.103-3.394c4.098-2.457,14.28-8.31,9.834-4.682c-4.45,3.63-12.408,7.725-12.877,10.77
		c-0.647-0.586-9.603-1.873-9.603-1.873L682.326,184.805z"/>
	<path fill="#2B3420" stroke="#234320" stroke-width="1.405" stroke-miterlimit="10" d="M688.414,183.555
		c0,0,3.12-22.784,2.966-36.362"/>
	
		<ellipse transform="matrix(-0.7546 -0.6562 0.6562 -0.7546 1141.0381 709.0255)" fill="#7F439A" stroke="#343433" stroke-width="0.936" stroke-miterlimit="10" cx="703.108" cy="141.136" rx="4.448" ry="3.454"/>
	<path fill="#7F439A" stroke="#343433" stroke-width="1.057" stroke-miterlimit="10" d="M700.966,144.879
		c0.439,2.666-0.968,5.117-3.146,5.479c-2.18,0.36-4.306-1.506-4.747-4.168c-0.442-2.668,0.965-5.12,3.146-5.481
		C698.396,140.348,700.523,142.215,700.966,144.879z"/>
	<path fill="#7F439A" stroke="#343433" stroke-width="1.114" stroke-miterlimit="10" d="M692.062,146.183
		c-1.643,2.387-4.5,3.271-6.387,1.978c-1.883-1.295-2.084-4.283-0.443-6.67c1.646-2.391,4.5-3.271,6.387-1.978
		C693.508,140.806,693.705,143.797,692.062,146.183L692.062,146.183z"/>
	<path fill="#7F439A" stroke="#343433" stroke-width="1.114" stroke-miterlimit="10" d="M686.66,139.866
		c-2.625,1.227-5.534,0.543-6.508-1.53c-0.97-2.067,0.37-4.75,2.992-5.979c2.622-1.228,5.535-0.545,6.506,1.527
		C690.625,135.955,689.283,138.635,686.66,139.866L686.66,139.866z"/>
	<path fill="#7F439A" stroke="#343433" stroke-width="0.917" stroke-miterlimit="10" d="M691.879,132.761
		c-2.431,0.488-4.684-0.555-5.047-2.328c-0.359-1.774,1.316-3.62,3.742-4.109c2.429-0.49,4.685,0.552,5.043,2.33
		C695.981,130.429,694.302,132.269,691.879,132.761L691.879,132.761z"/>
	<path fill="#7F439A" stroke="#343433" stroke-width="0.961" stroke-miterlimit="10" d="M698.064,134.379
		c-1.99-1.83-2.604-4.396-1.38-5.738c1.229-1.35,3.85-0.96,5.845,0.865c1.993,1.83,2.608,4.395,1.38,5.742
		C702.679,136.597,700.059,136.204,698.064,134.379L698.064,134.379z"/>
	
		<ellipse transform="matrix(-0.1667 0.986 -0.986 -0.1667 945.0797 -525.3275)" fill="#FCEB84" stroke="#2D2E2D" stroke-width="0.993" stroke-miterlimit="10" cx="694.516" cy="136.678" rx="5.09" ry="6.022"/>
</g>
<rect x="-0.065" y="185.64" fill="#AAD692" width="993.605" height="55.393"/>
<line fill="none" stroke="#234320" stroke-width="0.5" stroke-miterlimit="10" x1="-0.065" y1="185.64" x2="993.474" y2="185.389"/>
</svg>
