<svg xmlns="http://www.w3.org/2000/svg" width="1450" height="240" viewBox="0 0 1450 240"><g fill="#F7FCFC"><ellipse cx="521.946" cy="198.301" rx="10.931" ry="10.734"/><ellipse cx="534.091" cy="192.336" rx="14.17" ry="11.131"/><path d="M566.885 187.166c0 7.686-6.89 13.914-15.386 13.914s-15.384-6.23-15.384-13.914c0-7.682 6.886-13.914 15.383-13.914s15.385 6.232 15.385 13.914zM554.74 208.635c0 6.37-7.795 11.53-17.41 11.53s-17.41-5.16-17.41-11.53c0-6.365 7.794-11.527 17.41-11.527s17.41 5.162 17.41 11.527z"/><ellipse cx="562.026" cy="207.445" rx="13.766" ry="15.107"/><ellipse cx="569.315" cy="193.531" rx="14.575" ry="10.732"/></g><g fill="#F7FCFC"><ellipse cx="689.241" cy="141.08" rx="12.241" ry="12.705"/><ellipse cx="702.842" cy="134.018" rx="15.868" ry="13.176"/><ellipse cx="722.338" cy="127.9" rx="17.229" ry="16.469"/><ellipse cx="706.469" cy="153.314" rx="19.495" ry="13.645"/><ellipse cx="734.125" cy="151.9" rx="15.414" ry="17.883"/><path d="M758.61 135.43c0 7.02-7.308 12.707-16.325 12.707-9.014 0-16.32-5.688-16.32-12.707 0-7.018 7.306-12.705 16.32-12.705 9.018 0 16.324 5.687 16.324 12.705z"/></g><g fill="#F7FCFC"><circle cx="846.7" cy="215.549" r="9.331"/><ellipse cx="857.068" cy="210.365" rx="12.098" ry="9.676"/><ellipse cx="871.931" cy="205.871" rx="13.134" ry="12.098"/><ellipse cx="859.833" cy="224.535" rx="14.862" ry="10.023"/><ellipse cx="880.917" cy="223.498" rx="11.751" ry="13.135"/><ellipse cx="887.14" cy="211.402" rx="12.442" ry="9.33"/></g><g fill="#F7FCFC"><ellipse cx="459.691" cy="41.861" rx="9.992" ry="10.372"/><ellipse cx="470.795" cy="36.095" rx="12.954" ry="10.757"/><ellipse cx="486.709" cy="31.102" rx="14.064" ry="13.445"/><ellipse cx="473.755" cy="51.849" rx="15.915" ry="11.139"/><ellipse cx="496.332" cy="50.694" rx="12.583" ry="14.6"/><ellipse cx="502.995" cy="37.249" rx="13.324" ry="10.374"/></g><g fill="#F7FCFC"><ellipse cx="1047.364" cy="40.876" rx="7.821" ry="8.117"/><ellipse cx="1038.674" cy="45.39" rx="10.139" ry="8.419"/><ellipse cx="1026.218" cy="49.298" rx="11.007" ry="10.522"/><ellipse cx="1036.356" cy="33.06" rx="12.456" ry="8.718"/><ellipse cx="1018.688" cy="33.964" rx="9.848" ry="11.426"/><ellipse cx="1013.473" cy="44.486" rx="10.428" ry="8.119"/></g><g fill="#F7FCFC"><path d="M793.465 35.44c0 7.015-5.48 12.703-12.242 12.703s-12.24-5.688-12.24-12.704c0-7.02 5.48-12.71 12.24-12.71s12.242 5.69 12.242 12.71z"/><ellipse cx="794.825" cy="28.376" rx="15.868" ry="13.178"/><ellipse cx="814.32" cy="22.259" rx="17.229" ry="16.47"/><ellipse cx="798.452" cy="47.673" rx="19.495" ry="13.645"/><ellipse cx="826.107" cy="46.26" rx="15.414" ry="17.883"/><ellipse cx="834.269" cy="29.79" rx="16.321" ry="12.708"/></g><g fill="#F7FCFC"><ellipse cx="362.506" cy="134.824" rx="13.433" ry="14.34"/><ellipse cx="347.581" cy="126.853" rx="17.413" ry="14.873"/><path d="M307.282 119.948c0 10.267 8.465 18.59 18.906 18.59 10.442 0 18.905-8.323 18.905-18.59 0-10.264-8.463-18.588-18.905-18.588-10.44 0-18.906 8.325-18.906 18.588z"/><ellipse cx="343.601" cy="148.633" rx="21.393" ry="15.4"/><ellipse cx="313.253" cy="147.037" rx="16.915" ry="20.186"/><ellipse cx="304.296" cy="128.449" rx="17.911" ry="14.342"/></g><g fill="#F7FCFC"><path d="M1165.23 147.583c0 8.085-6.314 14.643-14.11 14.643-7.792 0-14.106-6.558-14.106-14.643 0-8.09 6.314-14.65 14.107-14.65 7.796 0 14.11 6.56 14.11 14.65z"/><path d="M1185.09 139.44c0 8.39-8.19 15.19-18.29 15.19-10.103 0-18.29-6.8-18.29-15.19 0-8.384 8.188-15.184 18.29-15.184 10.098 0 18.29 6.8 18.29 15.185z"/><ellipse cx="1189.27" cy="132.392" rx="19.857" ry="18.982"/><ellipse cx="1170.979" cy="161.684" rx="22.47" ry="15.728"/><ellipse cx="1202.855" cy="160.054" rx="17.766" ry="20.612"/><ellipse cx="1212.264" cy="141.071" rx="18.813" ry="14.646"/></g><g fill="#F7FCFC"><ellipse cx="91.768" cy="144.659" rx="7.498" ry="7.782"/><path d="M109.82 140.332c0 4.46-4.354 8.072-9.72 8.072s-9.72-3.613-9.72-8.072c0-4.455 4.352-8.07 9.72-8.07s9.72 3.615 9.72 8.07z"/><ellipse cx="112.04" cy="136.586" rx="10.553" ry="10.088"/><ellipse cx="102.321" cy="152.153" rx="11.941" ry="8.357"/><ellipse cx="119.26" cy="151.287" rx="9.441" ry="10.954"/><ellipse cx="124.26" cy="141.199" rx="9.998" ry="7.783"/></g><g fill="#F7FCFC"><path d="M1325.35 81.476c0 10.44-8.156 18.908-18.22 18.908-10.063 0-18.218-8.467-18.218-18.908 0-10.447 8.154-18.918 18.22-18.918 10.06 0 18.218 8.47 18.218 18.918z"/><path d="M1350.992 70.962c0 10.833-10.576 19.613-23.62 19.613s-23.614-8.78-23.614-19.613c0-10.828 10.572-19.61 23.615-19.61s23.62 8.782 23.62 19.61z"/><path d="M1382.033 61.858c0 13.538-11.482 24.515-25.645 24.515s-25.64-10.977-25.64-24.515c0-13.534 11.478-24.513 25.64-24.513s25.645 10.98 25.645 24.513z"/><path d="M1361.79 99.685c0 11.217-12.995 20.308-29.017 20.308-16.027 0-29.016-9.09-29.016-20.308s12.988-20.313 29.016-20.313c16.022 0 29.016 9.095 29.016 20.313z"/><ellipse cx="1373.935" cy="97.581" rx="22.942" ry="26.618"/><ellipse cx="1386.084" cy="73.068" rx="24.293" ry="18.912"/></g></svg>