<svg xmlns="http://www.w3.org/2000/svg" xmlns:xlink="http://www.w3.org/1999/xlink" width="453.342" height="371" viewBox="0 0 453.342 371"><path fill="#B3AD9F" stroke="#303030" stroke-width="1.486" stroke-miterlimit="10" d="M136.07 185.246h66.703v45.916H136.07z"/><path fill="#F5F9F6" stroke="#333" stroke-width="1.486" stroke-miterlimit="10" d="M245.942 133.143l7.927 6.83 7.68 18.873 1.114 24.35L253 212.153l-28.86-5.144 1.983-28.84 9.906-45.025z"/><path fill="#5D6054" d="M245.942 155.973l2.724 3.84s10.283 2.23 6.443 6.318-1.712 25.233-1.712 25.233l-11.296 14.842h-14.804l-1.176-28.036 9.043-29.257 10.777 7.06"/><path fill="#F0EADB" stroke="#303030" stroke-width="1.486" stroke-miterlimit="10" d="M262.687 132.77s-.143 8.96-5.084 22.618c-4.94 13.66 3.645 10.533 3.645 10.533s-2.69 3.904-7.018 9.147c-4.326 5.243 2.96 24.573 5.9 14.042 2.934-10.532 13.29-19.877 13.29-19.877l-6.8-32.78-3.933-3.682z"/><path fill="#E1CF88" d="M102.006 238.326v3.61s36.91 57.35 40.133 70.976c0 0 69.86-19.82 108.633-18.95 38.77.866 92.53 9.292 93.83 9.292 3.53-20.994 30.287-68.746 30.287-68.746l-13.38-21.926-30.593.615-17.838-22.555-27.005 17.055-23.535-23.594-24.278 19.275-27.746-18.156-22.73 23.824-28.12-14.74-14.516 28.506-28.925-9.615-14.22 25.13z"/><path fill="none" stroke="#030303" stroke-width="1.486" stroke-miterlimit="10" d="M102.006 238.326v3.61s36.91 57.35 40.133 70.976c0 0 69.86-19.82 108.633-18.95 38.77.866 92.53 9.292 93.83 9.292 3.53-20.994 30.287-68.746 30.287-68.746l-13.38-21.926-30.593.615-17.838-22.555-27.005 17.055-23.535-23.594-24.278 19.275-27.746-18.156-22.73 23.824-28.12-14.74-14.516 28.506-28.925-9.615-14.22 25.13z"/><path fill="none" stroke="#010101" stroke-width="1.486" stroke-miterlimit="10" d="M147.54 223.26l31.76 79.394M190.078 210.305l22.42 86.03M239.377 203.402l6.565 90.21M287.19 207.72l-2.724 86.884M332.03 213.22l-15.11 85.47"/><path fill="#59763D" stroke="#21421E" stroke-width=".743" stroke-miterlimit="10" d="M361.388 286.098c-.154-.215-9.404 8.066-10.527 8.734-1.124.666-7.866 11.086-7.866 11.086l10.033-9.29s4.93-5.202 5.822-6.296c.892-1.092 2.694-4.018 2.538-4.234zM356.164 276.145s-2.207-8.346-2.703-8.254c-.493.095-.222 7.06-.864 10.01-.65 2.98-6.053 14.118-6.568 15.444-.514 1.328-4.166 10.713-4.166 10.713l14.302-27.912zM289.156 280.113s1.34-7.826 6.146-16.25c1.777-3.113 1.477-3.818-1.16-.842-6.674 7.532-7.54 14.036-9.86 19.425-2.083 4.828-3.41.557-3.41.557s-4.364-11.705-6.688-15.7c-2.322-3.995-3.158-3.9-1.486.278 1.674 4.182 3.252 17.373 3.252 17.373s-5.48-2.602-6.78-3.81c-1.302-1.208-3.995-1.114-1.767.278 2.23 1.396 5.945 7.155 5.945 7.155l11.244.563 4.564-9.025z"/><path fill="#7DA35D" stroke="#21421E" stroke-width=".743" stroke-miterlimit="10" d="M292.857 289.783c1.332-3.438 6.287-8.576 6.287-8.576s.682-.62-.432-.62c-1.115 0-7.64 7.372-7.64 7.372s-.13.507-.202.208c-.43-1.775 10.316-24.055 10.316-24.055s.31-.87-.742-.436c-1.053.436-13.994 18.684-16.783 25.832"/><path fill="#6B9876" stroke="#2F3D32" stroke-width=".743" stroke-miterlimit="10" d="M346.648 303.813s18.072-15.156 20.674-17.852c2.693-.276 1.52 1.13 1.52 1.13l-20.81 17.014-1.384-.29z"/><path fill="#7DA35D" stroke="#21421E" stroke-width=".743" stroke-miterlimit="10" d="M349.527 304.057s14.75-13.725 18.58-14.83c3.16 2.787-6.494 23.135-6.316 22.39.93-3.9 2.487-16.26 1.302-15.608-1.852 1.01-9.342 5.144-11.5 8.425l-2.065-.378z"/><path fill="#6B9876" stroke="#2F3D32" stroke-width=".743" stroke-miterlimit="10" d="M341.748 305.35c1.54-4.61 17.514-35.232 17.977-34.248 1.2-.773.28-.674.813.242.53.916-17.99 31.963-18.324 34.006-.334 2.043-2.006 4.61-.466 0z"/><path fill="#B3AD9F" stroke="#303030" stroke-width=".743" stroke-miterlimit="10" d="M361.14 271.7c.03.4-1.02.315-1.02.315l-1.16-.662s-.643-1.006-.486-2.018c.158-1.012 4.717-8.064 6.506-9.22 1.787-1.155 1.95-1.204 2.756-1.144.807.062 1.936.702 1.936.702s.727 1.02.295 1.807c0 0-8.858 9.82-8.827 10.22z"/><path fill="#6B9876" stroke="#2F3D32" stroke-width=".743" stroke-miterlimit="10" d="M342.19 306.227s10.18-19.38 16.442-24.246 10.105-7.397 11.313-7.49c1.21-.093.516-.175.238.94-.28 1.113-4.955 3.3-10.25 8.037-5.297 4.738-17.744 22.76-17.744 22.76z"/><path fill="#938873" stroke="#303030" stroke-width=".743" stroke-miterlimit="10" d="M372.335 271.574c4.088-2.09 5.248-2.137 6.596-1.81 1.35.323.93.556 0 1.81-.93 1.256-2.743 2.738-4.024 3.3-1.28.562-3.035 1.73-4.36 1.91s-2.298-3.118 1.79-5.21z"/><path fill="#9B9484" stroke="#303030" stroke-width=".743" stroke-miterlimit="10" d="M374.595 281.145c3.59-1.213 9.703-3.18 9.703-3.18s3.318-.537 4.434 1.508c1.115 2.043-10.994 5.314-14.137 6.094s-3.854 1.424-5.195 1.152c-1.344-.274-2.004-.868-1.85-1.767.157-.898 3.455-2.598 7.045-3.808z"/><g stroke-miterlimit="10"><path fill="#59763D" stroke="#21421E" stroke-width=".743" d="M227.27 282.678c.928-1.906 3.9-6.457 5.666-8.78 1.765-2.323-8.64 8.687-9.662 10.034-1.02 1.346-.186.186-1.068-.465-.882-.65-16.304-15.143-12.68-10.684s8.035 8.918 9.242 11.938c1.208 3.02 1.348 4.786 1.348 4.786l7.618-1.486s-1.394-3.438-.465-5.342z"/><path fill="#7DA35D" stroke="#21421E" stroke-width=".743" d="M227.734 288.02s1.765-5.018 5.945-7.434c4.18-2.414-.497-1.455-6.597 2.85-1.486 1.47-2.51 3.748-3.748 3.934s-2.384-.744-5.636-2.695c-3.252-1.95-11.335-6.596-7.805-3.715 3.53 2.88 9.848 6.13 10.22 8.547.51-.466 7.62-1.487 7.62-1.487z"/><path fill="#2B3420" stroke="#21421E" stroke-width="1.115" d="M222.903 287.027s-2.478-18.084-2.354-28.86"/><ellipse transform="rotate(-130.994 211.23 253.36)" fill="#F5F8EE" stroke="#333" stroke-width=".743" cx="211.243" cy="253.366" rx="2.742" ry="3.531"/><ellipse transform="rotate(-170.575 216.072 256.848)" fill="#F5F8EE" stroke="#333" stroke-width=".839" cx="216.075" cy="256.851" rx="3.176" ry="3.882"/><ellipse transform="rotate(145.507 222.716 255.504)" fill="#F5F8EE" stroke="#333" stroke-width=".884" cx="222.717" cy="255.503" rx="3.289" ry="4.164"/><ellipse transform="rotate(115.106 225.696 249.363)" fill="#F5F8EE" stroke="#333" stroke-width=".884" cx="225.69" cy="249.371" rx="3.289" ry="4.163"/><ellipse transform="rotate(101.443 220.676 244.155)" fill="#F5F8EE" stroke="#333" stroke-width=".728" cx="220.671" cy="244.158" rx="2.606" ry="3.558"/><path fill="#F5F8EE" stroke="#333" stroke-width=".762" d="M215.244 247.996c1.58-1.45 2.068-3.488 1.094-4.555-.975-1.07-3.055-.757-4.638.69-1.58 1.452-2.07 3.487-1.094 4.556.977 1.072 3.055.757 4.638-.69z"/><ellipse transform="rotate(-9.607 218.08 249.855)" fill="#FEED84" stroke="#2D2E2D" stroke-width=".788" cx="218.055" cy="249.833" rx="4.78" ry="4.04"/></g><path fill="#7DA35D" stroke="#21421E" stroke-width=".743" stroke-miterlimit="10" d="M148.83 307.715l1.485-9.662-3.097 5.326 3.22-11.025-3.715 8.67-.496-11.644-3.47 18.085z"/><path fill="#59763D" stroke="#21421E" stroke-width=".743" stroke-miterlimit="10" d="M142.635 308.457l-.124-24.277-1.61 15.36-2.477-21.43-1.486 12.015-4.83-12.39 4.706 20.44 4.088 11.397z"/><path fill="#59763D" stroke="#21421E" stroke-width=".743" stroke-miterlimit="10" d="M139.415 308.21l-26.508-32.206 15.11 13.006 10.53 13.38z"/><path fill="#6B9876" stroke="#2F3D32" stroke-width=".743" stroke-miterlimit="10" d="M122.32 288.02l-11.396-8.053-2.6-2.354-10.777-5.574h-4.584l-.37 3.468 9.413 3.344 7.06 3.716 1.858-.496 14.74 12.14 13.378 14.99.373-.993z"/><path fill="#AAD591" d="M92.84 357.883s15.98-68.377 155.704-70.605c139.725-2.23 152.73 72.092 152.73 72.092L92.84 357.883z"/><path fill="none" stroke="#304324" stroke-width="1.486" stroke-miterlimit="10" d="M93.312 356.307c3.43-10.252 28.147-67 155.23-69.027 128.16-2.047 149.712 60.314 152.4 70.65"/><path fill="#F9E7E7" stroke="#2B2C2B" stroke-width="1.486" stroke-miterlimit="10" d="M104.716 225.277c-1.55-2.402-.12 7.768 1.473 9.79 1.592 2.026 2.354 2.622 5.643 2.23s4.278-1.856 4.278-1.856-9.845-7.758-11.394-10.163z"/><image overflow="visible" opacity=".4" width="411" height="443" xlink:href="CEA4DBF7.png" transform="matrix(.24 0 0 .24 91.22 148.77)"/><path fill="#F0EADB" d="M112.288 184.205s-11.698 29.594-11.892 33.197c-.193 3.602 8.424 16.846 19.82 19.322 11.395 2.48 19.55-1.963 20.81-4.953 1.26-2.99 3.963-9.413 3.963-9.413s2.97-.258 3.954-1.758c1.34-2.044 3.105-7.31 3.105-7.31s2.26-6.686 4.598-10.79c2.338-4.104 8.47-10.7 8.47-10.7l-.278-5.854-1.022-8.68 4.955-8.422 2.973-3.965s-8.918-6.938-20.81-6.938-25.95 7.92-25.95 7.92-8.485-3.333-12.697-3.46-6.35 7.716-6.442 9.414 1.318 7.263 2.478 8.422c1.157 1.162 3.962 3.967 3.962 3.967z"/><path fill="none" stroke="#303030" stroke-width="1.486" stroke-miterlimit="10" d="M112.288 184.205s-11.698 29.594-11.892 33.197c-.193 3.602 8.424 16.846 19.82 19.322 11.395 2.48 19.55-1.963 20.81-4.953 1.26-2.99 3.963-9.413 3.963-9.413s2.97-.258 3.954-1.758c1.34-2.044 3.105-7.31 3.105-7.31s2.26-6.686 4.598-10.79c2.338-4.104 8.47-10.7 8.47-10.7l-.278-5.854-1.022-8.68 4.955-8.422 2.973-3.965s-8.918-6.938-20.81-6.938-25.95 7.92-25.95 7.92-8.485-3.333-12.697-3.46-6.35 7.716-6.442 9.414 1.318 7.263 2.478 8.422c1.157 1.162 3.962 3.967 3.962 3.967z"/><path opacity=".5" fill="#E0C298" d="M140.833 230.504c-2.86 6.52-13.597 8.11-23.977 3.555-10.38-4.554-19.683-16.6-13.615-20.048 7.208-4.1 17.328-7.057 23.975-3.557 10.035 5.283 16.478 13.533 13.618 20.05z"/><radialGradient id="a" cx="143.726" cy="238.047" r="7.676" gradientTransform="rotate(72.34 175.72 215.19)" gradientUnits="userSpaceOnUse"><stop offset=".581" stop-color="#FFF"/><stop offset=".712" stop-color="#FBFBFB"/><stop offset=".843" stop-color="#EFEFEF"/><stop offset=".973" stop-color="#DBDBDB"/><stop offset="1" stop-color="#D6D6D6"/></radialGradient><path fill="url(#a)" stroke="#404040" stroke-width=".986" stroke-miterlimit="10" d="M146.58 199c-4.01 1.277-8.31-.986-9.604-5.057-1.3-4.068.903-8.402 4.913-9.68 4.01-1.278 8.31.986 9.606 5.055 1.296 4.07-.906 8.407-4.916 9.682z"/><radialGradient id="b" cx="143.719" cy="235.559" r="4.09" gradientTransform="rotate(72.34 175.72 215.19)" gradientUnits="userSpaceOnUse"><stop offset=".581" stop-color="#FFF"/><stop offset=".712" stop-color="#FBFBFB"/><stop offset=".843" stop-color="#EFEFEF"/><stop offset=".973" stop-color="#DBDBDB"/><stop offset="1" stop-color="#D6D6D6"/></radialGradient><path fill="url(#b)" stroke="#404040" stroke-width=".373" stroke-miterlimit="10" d="M145.353 186.945c-2.136.678-3.31 2.988-2.62 5.156.69 2.17 2.984 3.374 5.12 2.696 2.138-.682 3.31-2.992 2.62-5.158-.693-2.167-2.983-3.374-5.12-2.693z"/><path fill="#404040" d="M146.75 188.137c-1.412.45-2.21 1.89-1.79 3.217.426 1.328 1.91 2.043 3.318 1.594 1.408-.447 2.207-1.89 1.786-3.217-.423-1.328-1.906-2.04-3.314-1.593z"/><radialGradient id="c" cx="143.4" cy="233.281" r="1.251" gradientTransform="rotate(72.34 175.72 215.19)" gradientUnits="userSpaceOnUse"><stop offset=".581" stop-color="#FFF"/><stop offset=".712" stop-color="#FBFBFB"/><stop offset=".843" stop-color="#EFEFEF"/><stop offset=".973" stop-color="#DBDBDB"/><stop offset="1" stop-color="#D6D6D6"/></radialGradient><path fill="url(#c)" d="M149.05 191.035c-.68.217-1.39-.13-1.596-.77-.202-.643.178-1.338.858-1.55.67-.216 1.385.128 1.587.77.205.642-.177 1.337-.85 1.55z"/><ellipse transform="rotate(93.27 111.1 219.47)" opacity=".5" fill="#806C54" stroke="#302B25" stroke-width=".372" stroke-miterlimit="10" cx="111.104" cy="219.459" rx="2.739" ry="3.911"/><ellipse transform="rotate(93.27 127.88 226.37)" opacity=".5" fill="#806C54" stroke="#302B25" stroke-width=".372" stroke-miterlimit="10" cx="127.89" cy="226.361" rx="2.739" ry="3.911"/><image overflow="visible" opacity=".2" width="90" height="87" xlink:href="CEA4DBF5.png" transform="matrix(.24 0 0 .24 159.21 194.59)"/><path fill="#DFCBAE" d="M167.163 193.87l5.945 5.028s-2.23 5.406-2.973 6.564-3.097 2.156-5.45 2.354-2.753-.963-3.747-1.734l-2.238-1.734s-.98.217 0-2.033 8.463-8.444 8.463-8.444z"/><path fill="none" stroke="#393937" stroke-width="1.486" stroke-miterlimit="10" d="M167.163 193.87l5.945 5.028s-2.23 5.406-2.973 6.564-3.097 2.156-5.45 2.354-2.753-.963-3.747-1.734l-2.238-1.734s-.98.217 0-2.033 8.463-8.444 8.463-8.444z"/><path opacity=".5" fill="#E0C298" d="M111.036 164.57c-.023-.487-4.088 5.25-4.088 8.27s.774 6.165 1.626 7.5c.66 1.034 3.716 3.926 3.716 3.926s.148-2.137 1.185-3.576c1.036-1.44.897-1.22 1.858-1.998s3.14-1.456 5.09-1.34 6.37-.61 6.37-.61-7.02-2.672-8.255-3.415-3.77-2.165-4.6-3.46c-.83-1.296-2.88-4.808-2.902-5.297z"/><path fill="none" stroke="#2B2C2B" stroke-width="1.587" stroke-miterlimit="10" d="M144.99 223.26s3.685-9.027 2.198-12.955"/><path fill="none" stroke="#2B2C2B" stroke-width="1.115" stroke-miterlimit="10" d="M126.735 197.697c6.968.092 10.127 3.158 10.127 3.158M125.542 201.64c5.11-.093 8.64 3.53 8.64 3.53M124.984 204.863c4.46-.186 7.2 2.693 7.2 2.693"/><path fill="none" stroke="#2B2C2B" stroke-width="1.486" stroke-miterlimit="10" d="M125.542 167.265s6.78-1.445 14.77.578c7.99 2.023 15.7 9.7 15.7 9.7l7.805.626"/><path fill="none" stroke="#2B2C2B" stroke-width=".743" stroke-miterlimit="10" d="M126.526 176.37s-13.805-3.53-15.42-12.883"/><path fill="#2B2C2B" d="M157.287 185.246s.5-.07 1.23-.254c.728-.18 1.684-.49 2.553-.927.438-.213.84-.474 1.194-.73l.47-.403c.128-.14.25-.274.36-.397l.245-.362c.082-.1.103-.213.147-.29l.117-.252 1.336.653-.24.34c-.08.103-.156.25-.29.37l-.422.42c-.17.13-.354.268-.548.414l-.644.372c-.46.218-.954.418-1.458.558-2.02.585-4.05.488-4.05.488z"/><radialGradient id="d" cx="130.33" cy="245.278" r="7.146" gradientTransform="rotate(84.97 159.93 211.79)" gradientUnits="userSpaceOnUse"><stop offset=".581" stop-color="#FFF"/><stop offset=".712" stop-color="#FBFBFB"/><stop offset=".843" stop-color="#EFEFEF"/><stop offset=".973" stop-color="#DBDBDB"/><stop offset="1" stop-color="#D6D6D6"/></radialGradient><path fill="url(#d)" stroke="#404040" stroke-width=".918" stroke-miterlimit="10" d="M124.616 192.414c-3.902.342-7.35-2.592-7.697-6.55-.35-3.96 2.53-7.45 6.433-7.792 3.9-.346 7.347 2.588 7.696 6.547.346 3.958-2.534 7.448-6.434 7.794z"/><radialGradient id="e" cx="130.635" cy="243.414" r="3.808" gradientTransform="rotate(84.97 159.93 211.79)" gradientUnits="userSpaceOnUse"><stop offset=".581" stop-color="#FFF"/><stop offset=".712" stop-color="#FBFBFB"/><stop offset=".843" stop-color="#EFEFEF"/><stop offset=".973" stop-color="#DBDBDB"/><stop offset="1" stop-color="#D6D6D6"/></radialGradient><path fill="url(#e)" stroke="#404040" stroke-width=".348" stroke-miterlimit="10" d="M125.534 181.563c-2.08.184-3.616 2.043-3.43 4.152.185 2.11 2.02 3.672 4.1 3.49 2.082-.184 3.615-2.043 3.43-4.154-.187-2.11-2.023-3.67-4.1-3.487z"/><ellipse transform="rotate(-95.03 126.76 185.28)" fill="#404040" cx="126.764" cy="185.272" rx="2.35" ry="2.494"/><radialGradient id="f" cx="130.34" cy="241.291" r="1.165" gradientTransform="rotate(84.97 159.93 211.79)" gradientUnits="userSpaceOnUse"><stop offset=".581" stop-color="#FFF"/><stop offset=".712" stop-color="#FBFBFB"/><stop offset=".843" stop-color="#EFEFEF"/><stop offset=".973" stop-color="#DBDBDB"/><stop offset="1" stop-color="#D6D6D6"/></radialGradient><path fill="url(#f)" d="M128.058 186.033c-.66.06-1.236-.402-1.293-1.027-.054-.623.437-1.176 1.095-1.232.655-.06 1.232.4 1.287 1.023.056.627-.435 1.178-1.09 1.236z"/><path opacity=".6" fill="#393229" d="M111.074 216.594c-2.155-.123-3.975 1.002-4.06 2.51-.017.283.046.555.145.818.472-1.188 2.065-2.004 3.914-1.896 1.753.1 3.174 1 3.604 2.143.078-.198.133-.4.146-.616.086-1.51-1.594-2.837-3.75-2.96zM128.046 224.99c1.772.102 3.206 1.02 3.618 2.182.07-.188.12-.38.13-.586.088-1.51-1.592-2.836-3.748-2.96-2.155-.124-3.974 1-4.06 2.51-.016.27.04.528.13.78.46-1.203 2.066-2.033 3.93-1.926z"/><path fill="none" stroke="#2B2C2B" stroke-width=".743" stroke-miterlimit="10" d="M101.317 214.998s9.33-7.72 23.65-5.44c9.864 3.396 18.597 12.687 15.866 20.946"/><image overflow="visible" opacity=".5" width="347" height="334" xlink:href="CEA4DBFB.png" transform="matrix(.24 0 0 .24 303.47 162.17)"/><path fill="#F0EADB" d="M320.69 168.512c-1.884.206-12.325 14.12-12.263 17.094s1.918 7.162 3.902 7.39c1.98.23 4.41-2.522 5.76-3.767 1.345-1.245 3.39-5.946 5.897-6.04.975-.035 0 0 0 0s-3.95.736-5.898 8.625c-1.302 5.266 1.015 10.637 2.056 12.824 2.88 6.056 3.828 5.306 3.828 5.306s-.914-4.13-1.055-6.78c-.14-2.647.696-7.503 1.485-8.188.79-.684.408-.557-.707 1.61-1.115 2.17-.78 6.58-.78 6.58s1.847 15 4.833 19.577c2.985 4.58 9.105 9.672 22.296 10.143 13.193.47 18.582-2.33 24.713-13.967s.37-29.597-.187-35.172c-.56-5.573-5.342-17.42-6.643-16.583-1.3.837-4.754 4.57-10.824 4.323-2.05-.084-2.043-2.047-5.945-2.232s-4.552 2.833-10.032 2.694c-4.74-.12-4.97-2.602-7.572-2.834-3.352-.3-4.04 1.208-6.78 1.068-2.05-.105-2.694-2.044-6.085-1.672z"/><path fill="none" stroke="#303030" stroke-width="1.486" stroke-miterlimit="10" d="M320.69 168.512c-1.884.206-12.325 14.12-12.263 17.094s1.918 7.162 3.902 7.39c1.98.23 4.41-2.522 5.76-3.767 1.345-1.245 3.39-5.946 5.897-6.04.975-.035 0 0 0 0s-3.95.736-5.898 8.625c-1.302 5.266 1.015 10.637 2.056 12.824 2.88 6.056 3.828 5.306 3.828 5.306s-.914-4.13-1.055-6.78c-.14-2.647.696-7.503 1.485-8.188.79-.684.408-.557-.707 1.61-1.115 2.17-.78 6.58-.78 6.58s1.847 15 4.833 19.577c2.985 4.58 9.105 9.672 22.296 10.143 13.193.47 18.582-2.33 24.713-13.967s.37-29.597-.187-35.172c-.56-5.573-5.342-17.42-6.643-16.583-1.3.837-4.754 4.57-10.824 4.323-2.05-.084-2.043-2.047-5.945-2.232s-4.552 2.833-10.032 2.694c-4.74-.12-4.97-2.602-7.572-2.834-3.352-.3-4.04 1.208-6.78 1.068-2.05-.105-2.694-2.044-6.085-1.672z"/><image overflow="visible" opacity=".5" width="266" height="157" xlink:href="CEA4DBFD.png" transform="matrix(.24 0 0 .24 308.85 144.57)"/><path fill="#F9FCF7" d="M312.392 178.157c3.16-4.623 7.28-9.564 8.396-9.687 3.39-.37 4.035 1.57 6.086 1.674 2.74.14 3.43-1.367 6.78-1.068 2.603.232 2.833 2.712 7.573 2.834 5.48.14 6.13-2.88 10.033-2.694 3.9.186 3.895 2.148 5.945 2.232 6.068.247 9.52-3.488 10.822-4.324.137-.087.32-.008.525.162v-2.433s-1.023-5.295-2.23-6.875-2.787-1.114-3.26-1.857c-.475-.742 2.61-3.715-.984-5.937-3.723-2.303-5.51.365-6.566.218-1.057-.145-3.59-3.196-10.928-3.568-7.34-.37-9.848 4.83-11.082 5.296-1.234.464-9.078-.372-12.05 1.114s-1.58 4.737-2.138 5.667c-.56.928-3.623 4.458-4.832 5.666-1.207 1.207-4.645 7.434-2.906 13.333.26.088.537.17.816.247z"/><path fill="none" stroke="#383938" stroke-width="1.115" stroke-miterlimit="10" d="M312.392 178.157c3.16-4.623 7.28-9.564 8.396-9.687 3.39-.37 4.035 1.57 6.086 1.674 2.74.14 3.43-1.367 6.78-1.068 2.603.232 2.833 2.712 7.573 2.834 5.48.14 6.13-2.88 10.033-2.694 3.9.186 3.895 2.148 5.945 2.232 6.068.247 9.52-3.488 10.822-4.324.137-.087.32-.008.525.162v-2.433s-1.023-5.295-2.23-6.875-2.787-1.114-3.26-1.857c-.475-.742 2.61-3.715-.984-5.937-3.723-2.303-5.51.365-6.566.218-1.057-.145-3.59-3.196-10.928-3.568-7.34-.37-9.848 4.83-11.082 5.296-1.234.464-9.078-.372-12.05 1.114s-1.58 4.737-2.138 5.667c-.56.928-3.623 4.458-4.832 5.666-1.207 1.207-4.645 7.434-2.906 13.333.26.088.537.17.816.247z"/><image overflow="visible" opacity=".5" width="123" height="125" xlink:href="CEA4DBFF.png" transform="matrix(.24 0 0 .24 351.73 166.53)"/><ellipse fill="#F3F8F3" cx="364.361" cy="179.395" rx="7.859" ry="8.092"/><ellipse fill="none" stroke="#444544" stroke-width="1.115" stroke-miterlimit="10" cx="364.361" cy="179.395" rx="7.859" ry="8.092"/><ellipse fill="#E1F0E0" stroke="#273B2B" stroke-width=".372" stroke-miterlimit="10" cx="362.965" cy="177.336" rx="4.005" ry="3.961"/><path fill="#303030" stroke="#333" stroke-width=".372" stroke-miterlimit="10" d="M364.703 176.464c0 1.41-1.22 2.553-2.723 2.553-1.502 0-2.72-1.144-2.72-2.553 0-1.414 1.218-2.56 2.72-2.56 1.504 0 2.723 1.146 2.723 2.56z"/><ellipse fill="#F5F9F6" cx="361.293" cy="175.707" rx="1.396" ry="1.247"/><image overflow="visible" opacity=".5" width="141" height="143" xlink:href="CEA4DBFC.png" transform="matrix(.24 0 0 .24 325.13 168.18)"/><ellipse fill="#F3F8F3" cx="339.826" cy="183.171" rx="9.926" ry="10.22"/><ellipse fill="none" stroke="#444544" stroke-width="1.115" stroke-miterlimit="10" cx="339.826" cy="183.171" rx="9.926" ry="10.22"/><ellipse fill="#E1F0E0" stroke="#273B2B" stroke-width=".372" stroke-miterlimit="10" cx="336.905" cy="181.746" rx="4.571" ry="4.521"/><ellipse fill="#303030" stroke="#333" stroke-width=".372" stroke-miterlimit="10" cx="335.782" cy="180.75" rx="3.106" ry="2.916"/><ellipse fill="#F5F9F6" cx="334.997" cy="179.888" rx="1.593" ry="1.424"/><path fill="#F5F9F6" stroke="#2D2E2D" stroke-width=".743" stroke-miterlimit="10" d="M242.66 136.002s1.796-.296 4.77 1.538c2.973 1.835 5.387 6.044 5.016 8.196-.37 2.153-1.115 6.46-1.115 6.46s.185 2.158-1.487 3.03c-1.67.87-3.09 1.112-4.643 0s-4.483-3.217-4.483-3.217l-2.034-1.64-2.652-12.2 6.63-2.168"/><path fill="#5D6054" d="M237.216 140.252s2.72.592 5.443 1.065 5.458 4.694 5.882 5.77c.426 1.073 1.3 3.284 1.3 3.284s.43 2.755 0 3.126c-.43.372-2.476.558-3.9 0s-1.538-1.99-3.282-3.125l-4.273-2.784-1.17-7.334z"/><path fill="#F5F9F6" stroke="#2D2E2D" stroke-width=".743" stroke-miterlimit="10" d="M173.69 137.61s-2.837-.032-3.717.724c-.88.755-4.786 3.86-5.86 7.08-1.076 3.22 1.03 10.28 2.393 10.9 1.362.62 6.157-.017 7.184-.867l4.533-3.756-1.625-13.356-2.91-.724z"/><path fill="#5D6054" d="M176.342 139.657s-2.29-.986-3.653-.636-2.995 4.5-3.728 7.565-.615 7.808 0 7.98l2.382.66 7.253-4.79"/><image overflow="visible" opacity=".5" width="433" height="472" xlink:href="CEA4DBF4.png" transform="matrix(.24 0 0 .24 152.93 110.73)"/><path fill="#F5F9F6" d="M233.726 173.563s2.685-2.706 3.49-4.336c.806-1.63 1.805-4.165 1.805-5.512 0-1.348.17-7.24 0-8.594s-.2-4.34-.634-7.535c-.434-3.194-5.355-19.607-8.31-21.024-2.863-1.374-7.132-3.855-14.69-5.527-1.684-.373-3.53-.704-5.56-.975-11.15-1.487-27.666 8.32-27.666 8.32s-3.51 4.085-5.202 9.773 2.52 11.59 1.158 16.814c-1.364 5.226-14 18.835-15.485 23.768-1.485 4.93.38 13.112 2.974 15.69 2.594 2.578 9.087 9.373 11.52 9.54 2.436.173 33.24 3.433 36.976 1.77 3.74-1.667 15.42-6.18 17.65-13.6 1.247-4.146 1.186-11.37 1.976-18.57.346-3.153 1.05-14.21 1.207-17.28.134-2.59-.51 10.592-.51 10.592l-.697 6.69z"/><path fill="none" stroke="#303030" stroke-width="1.486" stroke-miterlimit="10" d="M233.726 173.563s2.685-2.706 3.49-4.336c.806-1.63 1.805-4.165 1.805-5.512 0-1.348.17-7.24 0-8.594s-.2-4.34-.634-7.535c-.434-3.194-5.355-19.607-8.31-21.024-2.863-1.374-7.132-3.855-14.69-5.527-1.684-.373-3.53-.704-5.56-.975-11.15-1.487-27.666 8.32-27.666 8.32s-3.51 4.085-5.202 9.773 2.52 11.59 1.158 16.814c-1.364 5.226-14 18.835-15.485 23.768-1.485 4.93.38 13.112 2.974 15.69 2.594 2.578 9.087 9.373 11.52 9.54 2.436.173 33.24 3.433 36.976 1.77 3.74-1.667 15.42-6.18 17.65-13.6 1.247-4.146 1.186-11.37 1.976-18.57.346-3.153 1.05-14.21 1.207-17.28.134-2.59-.51 10.592-.51 10.592l-.697 6.69z"/><path fill="#E5E6D2" stroke="#1E1E1E" stroke-width="1.486" stroke-miterlimit="10" d="M204.746 119.222l4.18-10s4.09-10.455 1.99-15.028c-2.097-4.573-2.603-6.482-6.56-7.532-2.778-.737-6.076-.127-7.513.667-1.436.794-1.637 1.062-3.625 1.735-1.987.673 0 0-3.488.316-3.49.318-4.726 3.727-4.726 3.727s.582 4.19-2.158 5.347c-2.74 1.157-2.61-1.747-3.496-1.42-.884.326-.662 4.43 1.848 6.296 2.508 1.866 4.133 2.56 5.938 1.5 1.806-1.058 3.433-1.65 4.978-3.937 1.544-2.286-.44-7.04.642-7.635s9.66-5.735 11.32-1.153c2.68 7.392.546 16.33-1.426 19.77-1.763 3.08-12.08 11.975-12.08 11.975l14.176-4.628z"/><ellipse fill="#5D6054" cx="191.067" cy="142.883" rx="13.812" ry="14.324"/><path fill="#E8BCAE" d="M231.193 186.21l-12.077-11.244s-14.68-6.216-22.482-7.104c-7.804-.887-7.804-.33-17.65 2.83-9.85 3.158-14.308 4.244-15.237 6.767-.93 2.522.372 8.235.93 12.276.557 4.04 6.72 9.867 10.715 11.816 3.995 1.95 37.036 3.53 37.036 3.53l15.05-9.173 2.23-4.423 1.485-5.276z"/><path fill="#857B6E" d="M183.4 189.82c.112-1.578-3.047-7.443-5.833-8.552-2.787-1.11-6.627 1.155-5.822 2.856s7.526 7.34 9.043 7.447 2.498-.172 2.61-1.75z"/><g><radialGradient id="g" cx="215.716" cy="142.718" r="8.206" gradientTransform="rotate(-36.97 202.81 181.76)" gradientUnits="userSpaceOnUse"><stop offset=".581" stop-color="#FFF"/><stop offset=".712" stop-color="#FBFBFB"/><stop offset=".843" stop-color="#EFEFEF"/><stop offset=".973" stop-color="#DBDBDB"/><stop offset="1" stop-color="#D6D6D6"/></radialGradient><path fill="url(#g)" stroke="#404040" stroke-width="1.115" stroke-miterlimit="10" d="M183.06 147.757c2.718 3.608 7.864 4.314 11.5 1.578 3.635-2.735 4.38-7.878 1.664-11.485-2.715-3.607-7.862-4.313-11.497-1.578-3.636 2.736-4.38 7.878-1.666 11.485z"/><path opacity=".9" fill="#9CD9EF" stroke="#3E5D67" stroke-width=".372" stroke-miterlimit="10" d="M191.742 141.22c1.47 1.95 1.077 4.726-.876 6.195-1.952 1.47-4.727 1.077-6.195-.875l-.2-.267c-1.47-1.953-1.078-4.727.874-6.195 1.953-1.47 4.727-1.08 6.196.873l.202.27z"/><path opacity=".9" fill="#2A2B2B" d="M188.66 142.57c.925 1.23.68 2.978-.552 3.903-1.23.925-2.978.678-3.902-.55l-.127-.17c-.928-1.23-.68-2.978.55-3.903 1.23-.926 2.977-.68 3.902.55l.128.17z"/><path fill="#F5F9F6" d="M186.622 143.394c.48.64.41 1.505-.16 1.935l-.284.213c-.57.43-1.423.258-1.903-.382s-.41-1.504.16-1.933l.284-.215c.57-.43 1.42-.26 1.902.382z"/></g><path opacity=".6" fill="#393229" d="M171.943 184.457c.895-1.292 3.554-2.335 5.624-1.517 2.373.952 5.02 5.366 5.672 7.616.078-.21.138-.443.16-.734.112-1.578-3.047-7.443-5.833-8.553-2.787-1.11-6.627 1.154-5.822 2.856.046.1.116.212.198.33z"/><path fill="#66665B" d="M214.867 186.523c-2.028.727-5.94 5.662-5.714 6.457.248.867 1.902 1.598 3.747 1.27 1.92-.342 8.377-5.078 8.47-6.287.19-2.488-4.54-2.143-6.503-1.44z"/><g><radialGradient id="h" cx="231.347" cy="145.839" r="9.043" gradientTransform="rotate(-18.54 220.98 184.85)" gradientUnits="userSpaceOnUse"><stop offset=".581" stop-color="#FFF"/><stop offset=".712" stop-color="#FBFBFB"/><stop offset=".843" stop-color="#EFEFEF"/><stop offset=".973" stop-color="#DBDBDB"/><stop offset="1" stop-color="#D6D6D6"/></radialGradient><path fill="url(#h)" stroke="#404040" stroke-width="1.228" stroke-miterlimit="10" d="M209.8 147.454c1.58 4.717 6.717 7.25 11.47 5.656s7.324-6.71 5.743-11.427-6.717-7.25-11.47-5.657c-4.753 1.594-7.324 6.71-5.743 11.428z"/><path opacity=".9" fill="#9CD9EF" stroke="#3E5D67" stroke-width=".372" stroke-miterlimit="10" d="M221.132 143.85c.855 2.553-.52 5.315-3.074 6.172-2.553.856-5.316-.52-6.172-3.072l-.117-.35c-.857-2.555.52-5.316 3.072-6.173 2.554-.856 5.316.52 6.173 3.072l.117.35z"/><path opacity=".9" fill="#2A2B2B" d="M217.44 144.188c.54 1.608-.328 3.35-1.937 3.89-1.608.54-3.35-.328-3.89-1.937l-.073-.22c-.54-1.61.328-3.35 1.937-3.888 1.608-.54 3.35.326 3.89 1.936l.072.22z"/><path fill="#F5F9F6" d="M215.023 144.338c.28.837-.096 1.718-.842 1.968l-.37.124c-.746.25-1.577-.226-1.857-1.062-.28-.836.096-1.716.842-1.966l.37-.125c.747-.25 1.578.225 1.858 1.06z"/></g><path fill="#5D6054" d="M192.755 93.258c-.036.234.16-.256.128-.015l-.01.006c-1.084.592.9 5.348-.644 7.634-1.545 2.286-3.173 2.878-4.978 3.937-1.806 1.06-3.432.366-5.94-1.5-2.51-1.865-2.73-5.97-1.846-6.296.885-.326.756 2.577 3.495 1.42.566-.237.99-.604 1.307-1.037 1.22-1.668.854-4.31.854-4.31s1.238-3.408 4.725-3.726c.474-.04 2.155 0 2.45-.01"/><path fill="#5D6054" stroke="#292B27" stroke-width="1.486" stroke-miterlimit="10" d="M183.346 127.815c-1.795-4.025-2.023-3.63-2.353-6.564-.33-2.934.47-10.596-.99-12.572-1.272-1.72-6.54-5.834-6.69-5.017-.275 1.492.155 10.375.435 11.583.278 1.208-1.58 4.938-2.168 6.255-.59 1.316-4.12 6.41-2.54 9.383 1.58 2.975 8.087 6.73 8.087 6.73s6.956-8.145 6.22-9.795zM231.202 127.144c.42 3.29 3.512 10.605 5.25 11.13.437.06 5.82-1.984 5.82-1.984s2.54-.714 5.142-7.403c2.602-6.688 2.416-20.252 1.115-20.81s-5.734 4.054-6.257 5.574c-.52 1.52-.42 5.328-2.168 7.247-3.275 3.6-8.3 5.202-8.903 6.247z"/><path opacity=".6" fill="#393229" d="M215.15 188.62c1.446-.52 4.39-.84 5.766.02.165-.22.27-.412.28-.555.19-2.486-4.542-2.143-6.503-1.44-2.028.73-5.94 5.663-5.714 6.458.096.34.414.656.87.898 1.03-1.73 3.73-4.816 5.3-5.38z"/><g><image overflow="visible" opacity=".25" width="199" height="116" xlink:href="CEA4DBF6.png" transform="matrix(.24 0 0 .24 259.56 195.95)"/><path fill="#737371" d="M263.158 199.734s.23 8.287 6.012 12.998c14.867 12.115 30.982-4.236 30.982-4.236l-36.994-8.762z"/><path fill="none" stroke="#131313" stroke-width="1.486" stroke-miterlimit="10" d="M263.158 199.734s.23 8.287 6.012 12.998c14.867 12.115 30.982-4.236 30.982-4.236l-36.994-8.762z"/></g><path fill="#7DA35D" stroke="#21421E" stroke-width=".743" stroke-miterlimit="10" d="M269.552 202.537l-9.726-.98 5.478 2.816-11.176-2.643 8.854 3.258-11.602 1.104 18.24 2.52z"/><path fill="#FFF" d="M268.943 200.736s-.078 6.096 4.205 9.39c11 8.48 23.818-4.052 23.818-4.052l-28.023-5.338z"/><path fill="#59763D" stroke="#21421E" stroke-width=".743" stroke-miterlimit="10" d="M274.964 205.146l-24.24 1.39 15.422.808-21.27 3.592 12.077.857-12.12 5.47L265 211.497l11.166-4.676z"/><g transform="rotate(175.71 290.06 190.35)"><ellipse fill="#EFF4F2" cx="290.059" cy="190.342" rx="28.614" ry="20.81"/><ellipse fill="none" stroke="#333" stroke-width="1.115" stroke-miterlimit="10" cx="290.059" cy="190.342" rx="28.614" ry="20.81"/></g><g><image overflow="visible" opacity=".25" width="320" height="422" xlink:href="CEA4DBF2.png" transform="matrix(.24 0 0 .24 249.22 97.2)"/><path fill="#737371" d="M314.896 178.857l-12.61-20.984s1.003-6.534-.15-8.684 1.394-4.575 1.438-7.313c.045-2.736-.883-5.15-.883-5.15s3.98-3.28 7.444-6.77c3.467-3.488 5.805-15.34 5.805-15.34l.77-3.038s-3.208-2.99-7.333-1.69-12.577 7.9-12.577 7.9-3.555 2.254-5.707 3.407c-2.15 1.157-10.566 1.537-10.566 1.537s-22.883-23.626-24.867-20.248-1.406 17.74-1.406 17.74 1.434 5.857 3.785 7.422c2.35 1.562 8.056 8.09 8.056 8.09s-1.797 5.85-1.646 7.825c.145 1.98 1.225 6.37 1.578 7.832.357 1.465 2.62 1.79 1.725 3.1-.898 1.31.59 7.906.59 7.906l-4.59 15.004s-1.842 9.932-1.893 11.58c-.05 1.65 6.43-15.254 26.332-16.868 19.9-1.616 28.566 9.843 28.566 9.843l-1.862-3.103z"/><path fill="none" stroke="#131313" stroke-width="1.486" stroke-miterlimit="10" d="M314.896 178.857l-12.61-20.984s1.003-6.534-.15-8.684 1.394-4.575 1.438-7.313c.045-2.736-.883-5.15-.883-5.15s3.98-3.28 7.444-6.77c3.467-3.488 5.805-15.34 5.805-15.34l.77-3.038s-3.208-2.99-7.333-1.69-12.577 7.9-12.577 7.9-3.555 2.254-5.707 3.407c-2.15 1.157-10.566 1.537-10.566 1.537s-22.883-23.626-24.867-20.248-1.406 17.74-1.406 17.74 1.434 5.857 3.785 7.422c2.35 1.562 8.056 8.09 8.056 8.09s-1.797 5.85-1.646 7.825c.145 1.98 1.225 6.37 1.578 7.832.357 1.465 2.62 1.79 1.725 3.1-.898 1.31.59 7.906.59 7.906l-4.59 15.004s-1.842 9.932-1.893 11.58c-.05 1.65 6.43-15.254 26.332-16.868 19.9-1.616 28.566 9.843 28.566 9.843l-1.862-3.103z"/></g><path fill="#E8BCAE" d="M264.5 194.078c.753 10.05 12.976 17.328 27.298 16.256 14.33-1.072 25.33-10.088 24.578-20.14-.75-10.047-12.973-17.325-27.3-16.252-14.325 1.073-25.326 10.09-24.575 20.136z"/><ellipse transform="rotate(175.71 301.92 186.23)" fill="#66665B" cx="301.922" cy="186.223" rx="4.212" ry="7.433"/><path fill="#66665B" d="M275.976 188.043c.332 4.434 2.592 7.88 5.045 7.693 2.458-.182 4.18-3.926 3.85-8.36-.335-4.436-2.59-7.882-5.05-7.697-2.455.183-4.178 3.926-3.844 8.363z"/><g><circle fill="#F3F8F3" stroke="#444544" stroke-width=".923" stroke-miterlimit="10" cx="294.593" cy="147.21" r="6.875"/><path fill="#444544" d="M293.566 148.625c.094 1.24 1.176 2.174 2.422 2.08 1.24-.092 2.172-1.175 2.078-2.418-.092-1.244-1.174-2.177-2.416-2.084-1.246.093-2.178 1.178-2.084 2.422z"/><path fill="#F3F8F3" d="M295.738 147.37c.045.6.582 1.048 1.207 1.002.62-.047 1.088-.57 1.045-1.17-.047-.604-.59-1.053-1.207-1.007-.623.048-1.092.574-1.045 1.174z"/></g><g><path fill="#F3F8F3" stroke="#444544" stroke-width=".982" stroke-miterlimit="10" d="M268.775 149.95c.305 4.025 3.81 7.043 7.834 6.742 4.022-.302 7.042-3.81 6.74-7.835-.302-4.023-3.808-7.043-7.833-6.74-4.023.3-7.043 3.807-6.742 7.832z"/><circle fill="#444544" cx="277.365" cy="150.728" r="2.401"/><path fill="#F3F8F3" d="M277.277 149.572c.05.64.62 1.116 1.285 1.065.66-.048 1.158-.606 1.11-1.244-.046-.638-.622-1.116-1.282-1.066-.662.05-1.16.608-1.113 1.245z"/></g><path fill="#E8BCAE" d="M271.695 120.84c1.72-.41-12.69-15.727-13.693-13.603-1.008 2.126-.748 10.543.33 14.132 1.074 3.587 9.057 13.982 8.578 10.074-.477-3.908 3.062-10.197 4.785-10.605zM301.183 132.14c-.336 1.328 4.82-2.845 7.2-5.01 2.386-2.166 6.14-13.38 2.82-12.944-3.32.435-13.452 6.124-14.23 7.35s4.542 9.275 4.21 10.603z"/><path fill="#F0EADB" stroke="#303030" stroke-width="1.486" stroke-miterlimit="10" d="M296.908 119.272c-.867-.866 5.617-1.29 6.54-2.23.93-.937-8.366-2.26-8.882-2.563-.518-.303 1.7-2.116 3.957-3.526 2.254-1.41-6.14 2.198-6.77 2.494-.627.294-1.48-1.504 1.36-5.07 2.84-3.566-5.64 3.9-5.882 4.415-.235.516 1.718-6.96 4.24-9.76-5.565.295-9.028 11.733-9.222 12.864-.193 1.134-15.348-7.545-12.322-5.288 3.027 2.257 5.97 6.76 5.97 6.76s-6.536.61-4.16.806c2.376.195 3.89 2.194 3.89 2.194s-12.564 7.15-10.197 6.478c2.364-.675 7.226-3.026 8.27-2.36 1.042.667-9.132 6.758-6.036 5.67 3.1-1.088 4.59-1.713 6.295-2.21 1.7-.5-5.67 3.903-2.517 2.92 3.154-.98.945-1.468 3.154-.98 2.217.485-2.135 14.57-.914 11 1.225-3.57 6.154-7.415 6.912-7.226.762.19-1.373 10.588.557 7.412 1.926-3.177 2.53-4.816 3.316-5.465.793-.652 2.412.688 3.684 2.703 1.266 2.017-1.152-5.814-.48-6.423.668-.61 6.357 5.362 8.457 6.82 2.097 1.456-5.93-11.173-6.36-11.947-.426-.774 5.688 1.313 7.615 2.163 1.928.85-1.963-2.957-2.273-3.806-.307-.846 7.094.214 9.04 1.31 1.95 1.098-6.373-6.29-7.244-7.158z"/><g><g fill="#BD4B4B" stroke="#717171" stroke-width=".712" stroke-miterlimit="10"><path d="M112.46 365.726l.76-23.28c0-.213.105-.36.32-.44s.465-.12.76-.12c.24 0 .592.008 1.06.02.465.015.932.06 1.4.14.465.08.88.19 1.24.32.36.135.552.32.58.56l-.72 18.642c0 .106.025.28.08.52.052.24.08.374.08.4l3.84.16c.132-.026.225.054.28.24.025.106.04.213.04.32l-.2 3.96c0 .053-.048.093-.14.12-.095.026-.195.046-.3.06s-.268.02-.48.02c-.108 0-.26.007-.46.02-.2.015-.314.008-.34-.02l-6.76-.6c-.694-.08-1.04-.294-1.04-.64v-.402zM123.02 358.766c-.055-.294-.095-.833-.12-1.62-.028-.786-.04-1.687-.04-2.7 0-1.013.02-2.066.06-3.16.04-1.093.112-2.093.22-3 .105-.906.26-1.66.46-2.26.2-.6.445-.913.74-.94.56-.053 1.092-.06 1.6-.02.505.04 1.052.087 1.64.14.265.027.42.12.46.28s.072.307.1.44c.105 1.04.14 2.08.1 3.12-.04 1.04-.087 2.08-.14 3.12-.055 1.04-.095 2.086-.12 3.14-.028 1.054.025 2.113.16 3.18.08.72.172 1.407.28 2.06.105.654.305 1.214.6 1.68.292.468.725.82 1.3 1.06.572.24 1.38.32 2.42.24.746-.053 1.24-.34 1.48-.86s.345-1.045.32-1.58l-.48-15.96.32-.358 3.32-.32c.48-.053.825.08 1.04.4.212.32.346.666.4 1.04-.028.054-.04.094-.04.12v.12l.2 13.24c0 .8-.048 1.645-.14 2.54-.095.893-.295 1.76-.6 2.6-.308.84-.74 1.62-1.3 2.34-.56.72-1.308 1.28-2.24 1.68-.135 0-.34.02-.62.06-.28.04-.5.06-.66.06-1.84.187-3.395.047-4.66-.42-1.268-.466-2.32-1.166-3.16-2.1-.84-.933-1.488-2.04-1.94-3.32-.455-1.283-.775-2.63-.96-4.042zM142.86 367.726c-.08-.107-.174-.314-.28-.62-.108-.307-.208-.634-.3-.98-.095-.346-.175-.673-.24-.98-.068-.306-.115-.525-.14-.66 0-.025-.008-.08-.02-.16-.015-.08-.048-.12-.1-.12l11.08-16.2c-.028-.08-.12-.145-.28-.198l-11.48.6c-.028.027-.095-.02-.2-.14-.108-.12-.147-.207-.12-.26l-.56-3.72h.08l17.28-.84.08.04.72 3.36c.08.053-.068.34-.44.858-.375.52-.875 1.194-1.5 2.02-.628.827-1.355 1.774-2.18 2.84-.828 1.067-1.655 2.16-2.48 3.28-.828 1.12-1.615 2.247-2.36 3.38s-1.36 2.18-1.84 3.14c.025.188.132.28.32.28h.08l11.2-1.4c.585-.16 1.025.028 1.32.562.292.533.48 1.14.56 1.82.08.68.072 1.267-.02 1.76-.095.493-.235.62-.42.38l-17.76 1.958zM177.378 364.605c-.134-.267-.054-.554.24-.86.293-.306.666-.586 1.12-.84.453-.253.933-.48 1.44-.68.506-.2.933-.326 1.28-.38.346-.08.74.054 1.18.4.44.346.946.726 1.52 1.14.573.413 1.233.767 1.98 1.06.746.294 1.613.36 2.6.2 1.52-.24 2.533-.733 3.04-1.48.506-.746.56-1.546.16-2.4-.32-.692-.86-1.24-1.62-1.64-.76-.4-1.634-.74-2.62-1.02-.987-.28-2.034-.54-3.14-.78-1.107-.24-2.174-.526-3.2-.86-1.027-.333-1.947-.766-2.76-1.3-.814-.533-1.434-1.24-1.86-2.12-.427-.88-.527-1.82-.3-2.82s.713-1.952 1.46-2.86c.747-.905 1.733-1.7 2.96-2.38s2.626-1.14 4.2-1.38c.08 0 .22-.013.42-.04l.6-.08c.2-.025.386-.06.56-.1.173-.04.286-.072.34-.1.96.054 1.873.18 2.74.38.866.2 1.66.474 2.38.82.72.347 1.346.74 1.88 1.18.533.44.92.927 1.16 1.46.373.774.326 1.454-.14 2.04-.467.587-1.474 1-3.02 1.24-.134.027-.294.047-.48.06-.187.015-.32-.046-.4-.18-.187-.373-.427-.78-.72-1.22-.293-.44-.667-.826-1.12-1.16-.454-.333-.994-.58-1.62-.74-.627-.16-1.367-.16-2.22 0-.507.08-1.034.214-1.58.4-.547.187-1.04.414-1.48.68-.44.267-.793.56-1.06.88-.267.32-.387.667-.36 1.04 0 .08.073.254.22.52.146.268.22.428.22.48.32.667.866 1.214 1.64 1.64.773.428 1.666.794 2.68 1.1 1.013.308 2.08.595 3.2.86s2.187.567 3.2.9c1.013.334 1.92.734 2.72 1.2.8.467 1.374 1.074 1.72 1.82.453.986.673 1.946.66 2.88-.014.934-.307 1.78-.88 2.54-.574.76-1.44 1.427-2.6 2-1.16.573-2.66.993-4.5 1.26-.107.027-.294.066-.56.12-.267.053-.547.106-.84.16-.293.053-.58.1-.86.14-.28.04-.474.06-.58.06-.854.026-1.76-.026-2.72-.16-.96-.133-1.867-.34-2.72-.62-.854-.28-1.6-.625-2.24-1.04-.64-.413-1.08-.886-1.32-1.42zM204.858 367.445c0-.027-.007-.053-.02-.08-.014-.026-.02-.053-.02-.08v-.08l-.44-16.2v-.54c0-.253.006-.52.02-.8.013-.28.02-.546.02-.8v-.54c0-.026.006-.066.02-.12.013-.053.02-.106.02-.16-.027-.105-.06-.226-.1-.36s-.167-.186-.38-.16l-5.8.6c-.187.028-.3-.02-.34-.14l-.1-.3c-.106-.772-.16-1.593-.16-2.46s.106-1.7.32-2.5c.053-.133.146-.206.28-.22.133-.013.253-.02.36-.02l13.92-.08 1.28-.16c.053 0 .106.047.16.14.053.095.093.154.12.18 0 .027.02.154.06.38s.06.395.06.5c.106.72.16 1.375.16 1.96 0 .588-.027 1.335-.08 2.24-.054.188-.107.295-.16.32-.054.027-.16.04-.32.04-.8.107-1.574.094-2.32-.04-.747-.133-1.507-.173-2.28-.12-.24.055-.394.14-.46.26-.067.12-.1.288-.1.5l.36 18.48c-.08.16-.22.28-.42.36-.2.08-.407.133-.62.16-.214.026-.427.046-.64.06-.214.014-.36.033-.44.06-.054 0-.14.007-.26.02s-.253.022-.4.022c-.147 0-.28.006-.4.02s-.194.02-.22.02c-.16 0-.313-.033-.46-.1-.147-.068-.22-.155-.22-.262zM214.898 342.846c0-.026.06-.06.18-.1s.207-.06.26-.06l13.76-.84.24.358v.8c.025.16.053.414.08.76s.046.7.06 1.06c.013.36.013.688 0 .98-.014.294-.034.468-.06.52l-.4.522c-.08.026-.16.04-.24.04h-.4l-9.768.56c-.054.026-.102.134-.142.32-.04.187-.06.307-.06.36 0 .08.02.233.06.46.04.227.08.473.122.74l.12.78c.04.253.062.433.062.54.054.133.154.293.303.478.148.188.29.268.423.24l2.92-.24c.16-.026.286.067.38.28.093.214.166.467.22.76.053.294.093.574.12.84.026.268.04.44.04.52.053.668.02 1.147-.1 1.44-.12.294-.287.487-.5.58-.214.094-.467.134-.76.12-.294-.013-.587-.013-.88 0-.294.014-.574.094-.84.24-.267.146-.494.434-.68.86-.054.746-.094 1.58-.12 2.5-.027.92-.014 1.793.04 2.62 0 .106.006.24.02.4.013.16.02.253.02.28l.44.438c.56-.08 1.2-.2 1.92-.36.72-.16 1.446-.3 2.18-.42.733-.12 1.453-.192 2.16-.22.707-.025 1.346.06 1.92.26.573.2 1.04.534 1.4 1 .36.468.566 1.14.62 2.02 0 .135.02.388.06.76.04.375.06.628.06.762-.026.134-.087.2-.18.2-.094 0-.193.013-.3.04l-13.795.96-.965-25.158zM231.097 365.726l.76-23.28c0-.213.107-.36.32-.44s.467-.12.76-.12c.24 0 .594.008 1.06.02.468.015.935.06 1.4.14.467.08.88.19 1.24.32.36.135.554.32.58.56l-.72 18.642c0 .106.026.28.08.52.053.24.08.374.08.4l3.84.16c.133-.026.227.054.28.24.026.106.04.213.04.32l-.2 3.96c0 .053-.047.093-.14.12-.094.026-.194.046-.3.06s-.268.02-.48.02c-.107 0-.26.007-.46.02-.2.015-.314.008-.34-.02l-6.76-.6c-.694-.08-1.04-.294-1.04-.64v-.402zM242.257 365.726l.76-23.28c0-.213.107-.36.32-.44s.467-.12.76-.12c.24 0 .594.008 1.06.02.468.015.935.06 1.4.14.467.08.88.19 1.24.32.36.135.554.32.58.56l-.72 18.642c0 .106.026.28.08.52.053.24.08.374.08.4l3.84.16c.133-.026.227.054.28.24.026.106.04.213.04.32l-.2 3.96c0 .053-.047.093-.14.12-.094.026-.194.046-.3.06s-.268.02-.48.02c-.107 0-.26.007-.46.02-.2.015-.314.008-.34-.02l-6.76-.6c-.694-.08-1.04-.294-1.04-.64v-.402zM265.337 366.886c-.027-.24-.08-.66-.16-1.26s-.168-1.233-.26-1.9c-.094-.667-.188-1.307-.28-1.92s-.154-1.04-.18-1.28c-.08-.427-.175-.847-.28-1.26-.107-.413-.414-.74-.92-.98-.348 0-.774-.02-1.28-.06-.507-.04-.974-.047-1.4-.02-.294.16-.526.473-.7.94s-.326 1.013-.46 1.64c-.134.626-.24 1.293-.32 2-.08.706-.173 1.38-.28 2.02-.105.64-.24 1.22-.398 1.74-.16.52-.362.886-.602 1.1-.08 0-.207.013-.38.04-.174.026-.273.026-.3 0-.267.026-.634.046-1.1.06s-.935-.02-1.4-.1-.88-.207-1.24-.38c-.36-.174-.554-.42-.58-.74-.026-.267.054-.82.24-1.66.187-.84.446-1.854.78-3.04.332-1.187.713-2.5 1.14-3.94.427-1.44.86-2.893 1.3-4.36s.887-2.88 1.34-4.24.854-2.572 1.2-3.64.64-1.92.88-2.56c.24-.64.373-.96.4-.96.48-.026 1.013-.053 1.6-.08.586-.026 1.18-.013 1.78.04.6.054 1.16.147 1.68.28.52.134.953.347 1.3.64l4.32 24.16c0 .054-.074.12-.22.2s-.32.153-.52.22l-.6.2-.42.14c-.588 0-1.088.02-1.5.06-.415.04-.76.047-1.04.02s-.516-.118-.7-.278c-.19-.163-.335-.443-.44-.842zm-4.32-13.96c0 .08-.027.227-.08.44-.054.213-.113.433-.18.66-.067.226-.12.433-.16.62-.04.186-.06.293-.06.318l.92.2 1.52-.04.44-.44c.053-.025.086-.18.1-.46.013-.28.013-.6 0-.96-.014-.36-.034-.713-.06-1.06-.027-.346-.04-.586-.04-.72 0-.64-.034-1.153-.1-1.54-.068-.387-.182-.913-.34-1.58-.107-.106-.215-.187-.32-.24-.16.054-.254.147-.28.28-.24.507-.407.92-.5 1.24-.095.32-.167.627-.22.92-.055.294-.12.62-.2.98-.08.36-.227.82-.44 1.38zM287.056 343.005l11.2-1.08.68 4.68-7.48.24c-.187.08-.3.268-.34.56-.04.295-.04.607 0 .94.04.334.087.66.14.98s.094.534.12.64c.106.454.334.7.68.74s.728.034 1.142-.02c.412-.054.813-.094 1.2-.12s.686.106.9.4c-.028.08-.008.2.06.36.066.16.113.28.14.36 0 .16.02.372.06.64.04.266.08.54.12.82.04.278.06.525.06.74 0 .212-.026.332-.08.358l-.44.44-3.24.68c-.08 0-.132.054-.16.16-.025.08-.052.247-.08.5-.025.254-.013.407.042.46l1 10c0 .16-.055.367-.16.62-.107.254-.307.393-.6.42l-3.04.56-.32-.04c0-.054-.02-.174-.06-.36-.04-.187-.074-.306-.1-.36l-1.444-24.318zM299.656 365.726l.76-23.28c0-.213.107-.36.32-.44s.467-.12.76-.12c.24 0 .594.008 1.06.02.468.015.935.06 1.4.14.467.08.88.19 1.24.32.36.135.554.32.58.56l-.72 18.642c0 .106.026.28.08.52.053.24.08.374.08.4l3.84.16c.133-.026.227.054.28.24.026.106.04.213.04.32l-.2 3.96c0 .053-.047.093-.14.12-.094.026-.194.046-.3.06s-.268.02-.48.02c-.107 0-.26.007-.46.02-.2.015-.314.008-.34-.02l-6.76-.6c-.694-.08-1.04-.294-1.04-.64v-.402zM309.136 358.525c-.4-1.253-.56-2.62-.48-4.1.08-1.48.414-2.894 1-4.24s1.44-2.54 2.56-3.58 2.52-1.76 4.2-2.16c1.227-.267 2.4-.286 3.52-.06s2.14.626 3.06 1.2c.92.573 1.708 1.286 2.36 2.14s1.14 1.76 1.46 2.72c.694 2.054 1.054 4.02 1.08 5.9.027 1.88-.24 3.833-.8 5.86-.693 1.2-1.652 2.187-2.88 2.96-1.226.773-2.573 1.333-4.04 1.68-1.466.347-2.807.293-4.02-.16s-2.287-1.12-3.22-2c-.934-.88-1.72-1.88-2.36-3-.64-1.12-1.12-2.173-1.44-3.16zm4.72-.44c.187.56.446 1.08.78 1.56.333.48.74.888 1.22 1.22.48.335 1.02.56 1.62.68s1.273.102 2.02-.06c1.12-.24 1.906-.726 2.36-1.46.453-.732.72-1.553.8-2.46s.033-1.82-.14-2.74c-.174-.92-.34-1.7-.5-2.34-.026-.052-.073-.165-.14-.34-.067-.173-.14-.36-.22-.56-.08-.2-.147-.386-.2-.56-.055-.173-.08-.286-.08-.34-.214-.373-.494-.667-.84-.88-.348-.214-.734-.366-1.16-.46-.428-.094-.867-.134-1.32-.12s-.894.073-1.32.18-.74.214-.94.32c-.2.106-.433.32-.7.64-.853 1.36-1.393 2.627-1.62 3.8-.226 1.174-.1 2.48.38 3.92zM329.256 342.846c0-.026.06-.06.18-.1s.206-.06.26-.06l13.76-.84.24.358v.8c.026.16.054.414.08.76s.047.7.06 1.06c.014.36.014.688 0 .98-.013.294-.033.468-.06.52l-.4.522c-.08.026-.16.04-.24.04h-.4l-9.767.56c-.056.026-.103.134-.143.32s-.06.307-.06.36c0 .08.02.233.06.46.04.227.08.473.122.74.038.266.08.526.12.78.04.253.06.433.06.54.054.133.155.293.304.478.147.188.29.268.423.24l2.92-.24c.16-.026.286.067.38.28.094.214.166.467.22.76.054.294.094.574.12.84.027.268.04.44.04.52.054.668.02 1.147-.1 1.44-.12.294-.286.487-.5.58-.214.094-.467.134-.76.12-.294-.013-.587-.013-.88 0-.294.014-.574.094-.84.24-.268.146-.494.434-.68.86-.055.746-.094 1.58-.12 2.5-.027.92-.015 1.793.04 2.62 0 .106.006.24.02.4s.02.253.02.28l.44.438c.56-.08 1.2-.2 1.92-.36s1.446-.3 2.18-.42 1.453-.192 2.16-.22c.706-.025 1.347.06 1.92.26s1.04.534 1.4 1c.36.468.566 1.14.62 2.02 0 .135.02.388.06.76.04.375.06.628.06.762-.026.134-.086.2-.18.2s-.193.013-.3.04l-13.795.96-.966-25.158zM351.176 367.445c0-.027-.007-.053-.02-.08-.015-.026-.02-.053-.02-.08v-.08l-.44-16.2v-.54c0-.253.006-.52.02-.8.013-.28.02-.546.02-.8v-.54c0-.026.007-.066.02-.12.014-.053.02-.106.02-.16-.025-.105-.06-.226-.1-.36s-.166-.186-.38-.16l-5.8.6c-.187.028-.3-.02-.34-.14l-.1-.3c-.106-.772-.16-1.593-.16-2.46s.106-1.7.32-2.5c.053-.133.146-.206.28-.22.133-.013.253-.02.36-.02l13.92-.08 1.28-.16c.052 0 .105.047.16.14.052.095.092.154.12.18 0 .027.02.154.06.38s.06.395.06.5c.105.72.16 1.375.16 1.96 0 .588-.027 1.335-.08 2.24-.055.188-.107.295-.16.32-.054.027-.16.04-.32.04-.8.107-1.574.094-2.32-.04-.747-.133-1.507-.173-2.28-.12-.24.055-.394.14-.46.26s-.1.288-.1.5l.36 18.48c-.08.16-.22.28-.42.36-.2.08-.407.133-.62.16-.214.026-.427.046-.64.06-.214.014-.36.033-.44.06-.054 0-.14.007-.26.02-.12.015-.254.022-.4.022s-.28.006-.4.02-.193.02-.22.02c-.16 0-.313-.033-.46-.1s-.22-.155-.22-.262zM371.896 368.045l.08-6.72-4.44-.4h-.12c-.054 0-.094.008-.12.02-.026.015-.053.02-.08.02-.293.055-.48.148-.56.28-.08.135-.12.32-.12.562l.08 6.16c-.026.105-.073.232-.14.38-.067.146-.194.232-.38.26h-.08c-.107 0-.3-.014-.58-.04-.28-.027-.58-.054-.9-.08-.32-.027-.62-.06-.9-.1-.28-.04-.46-.074-.54-.1-.267-.027-.426-.095-.48-.2s-.08-.24-.08-.4l-.64-23.84c.027-.106.107-.26.24-.46.134-.2.28-.327.44-.38.32-.026.68-.014 1.08.04.4.053.807.12 1.22.2.414.08.82.166 1.22.26.4.093.747.153 1.04.18.134.106.227.207.28.3.054.094.094.193.12.3 0 .187.014.294.04.32l-.76 12.84c.24.08.593.153 1.06.22.467.067.96.12 1.48.16s1.02.06 1.5.06.854-.025 1.12-.08l.92-14.16c.133-.266.307-.412.52-.44.56-.052 1.174-.08 1.84-.08.667 0 1.267-.025 1.8-.08.24.08.387.148.44.2.054.055.094.16.12.32 0 .107.014.175.04.2l-1.08 23.76c-.026.268-.106.507-.24.72-.133.214-.373.334-.72.36-.16.027-.434.06-.82.1-.387.04-.786.048-1.2.022-.413-.028-.786-.08-1.12-.16-.333-.08-.526-.228-.58-.44v-.085z"/></g><g fill="#EF6F6F"><path d="M112.46 365.726l.76-23.28c0-.213.105-.36.32-.44s.465-.12.76-.12c.24 0 .592.008 1.06.02.465.015.932.06 1.4.14.465.08.88.19 1.24.32.36.135.552.32.58.56l-.72 18.642c0 .106.025.28.08.52.052.24.08.374.08.4l3.84.16c.132-.026.225.054.28.24.025.106.04.213.04.32l-.2 3.96c0 .053-.048.093-.14.12-.095.026-.195.046-.3.06s-.268.02-.48.02c-.108 0-.26.007-.46.02-.2.015-.314.008-.34-.02l-6.76-.6c-.694-.08-1.04-.294-1.04-.64v-.402zM123.02 358.766c-.055-.294-.095-.833-.12-1.62-.028-.786-.04-1.687-.04-2.7 0-1.013.02-2.066.06-3.16.04-1.093.112-2.093.22-3 .105-.906.26-1.66.46-2.26.2-.6.445-.913.74-.94.56-.053 1.092-.06 1.6-.02.505.04 1.052.087 1.64.14.265.027.42.12.46.28s.072.307.1.44c.105 1.04.14 2.08.1 3.12-.04 1.04-.087 2.08-.14 3.12-.055 1.04-.095 2.086-.12 3.14-.028 1.054.025 2.113.16 3.18.08.72.172 1.407.28 2.06.105.654.305 1.214.6 1.68.292.468.725.82 1.3 1.06.572.24 1.38.32 2.42.24.746-.053 1.24-.34 1.48-.86s.345-1.045.32-1.58l-.48-15.96.32-.358 3.32-.32c.48-.053.825.08 1.04.4.212.32.346.666.4 1.04-.028.054-.04.094-.04.12v.12l.2 13.24c0 .8-.048 1.645-.14 2.54-.095.893-.295 1.76-.6 2.6-.308.84-.74 1.62-1.3 2.34-.56.72-1.308 1.28-2.24 1.68-.135 0-.34.02-.62.06-.28.04-.5.06-.66.06-1.84.187-3.395.047-4.66-.42-1.268-.466-2.32-1.166-3.16-2.1-.84-.933-1.488-2.04-1.94-3.32-.455-1.283-.775-2.63-.96-4.042zM142.86 367.726c-.08-.107-.174-.314-.28-.62-.108-.307-.208-.634-.3-.98-.095-.346-.175-.673-.24-.98-.068-.306-.115-.525-.14-.66 0-.025-.008-.08-.02-.16-.015-.08-.048-.12-.1-.12l11.08-16.2c-.028-.08-.12-.145-.28-.198l-11.48.6c-.028.027-.095-.02-.2-.14-.108-.12-.147-.207-.12-.26l-.56-3.72h.08l17.28-.84.08.04.72 3.36c.08.053-.068.34-.44.858-.375.52-.875 1.194-1.5 2.02-.628.827-1.355 1.774-2.18 2.84-.828 1.067-1.655 2.16-2.48 3.28-.828 1.12-1.615 2.247-2.36 3.38s-1.36 2.18-1.84 3.14c.025.188.132.28.32.28h.08l11.2-1.4c.585-.16 1.025.028 1.32.562.292.533.48 1.14.56 1.82.08.68.072 1.267-.02 1.76-.095.493-.235.62-.42.38l-17.76 1.958zM177.378 364.605c-.134-.267-.054-.554.24-.86.293-.306.666-.586 1.12-.84.453-.253.933-.48 1.44-.68.506-.2.933-.326 1.28-.38.346-.08.74.054 1.18.4.44.346.946.726 1.52 1.14.573.413 1.233.767 1.98 1.06.746.294 1.613.36 2.6.2 1.52-.24 2.533-.733 3.04-1.48.506-.746.56-1.546.16-2.4-.32-.692-.86-1.24-1.62-1.64-.76-.4-1.634-.74-2.62-1.02-.987-.28-2.034-.54-3.14-.78-1.107-.24-2.174-.526-3.2-.86-1.027-.333-1.947-.766-2.76-1.3-.814-.533-1.434-1.24-1.86-2.12-.427-.88-.527-1.82-.3-2.82s.713-1.952 1.46-2.86c.747-.905 1.733-1.7 2.96-2.38s2.626-1.14 4.2-1.38c.08 0 .22-.013.42-.04l.6-.08c.2-.025.386-.06.56-.1.173-.04.286-.072.34-.1.96.054 1.873.18 2.74.38.866.2 1.66.474 2.38.82.72.347 1.346.74 1.88 1.18.533.44.92.927 1.16 1.46.373.774.326 1.454-.14 2.04-.467.587-1.474 1-3.02 1.24-.134.027-.294.047-.48.06-.187.015-.32-.046-.4-.18-.187-.373-.427-.78-.72-1.22-.293-.44-.667-.826-1.12-1.16-.454-.333-.994-.58-1.62-.74-.627-.16-1.367-.16-2.22 0-.507.08-1.034.214-1.58.4-.547.187-1.04.414-1.48.68-.44.267-.793.56-1.06.88-.267.32-.387.667-.36 1.04 0 .08.073.254.22.52.146.268.22.428.22.48.32.667.866 1.214 1.64 1.64.773.428 1.666.794 2.68 1.1 1.013.308 2.08.595 3.2.86s2.187.567 3.2.9c1.013.334 1.92.734 2.72 1.2.8.467 1.374 1.074 1.72 1.82.453.986.673 1.946.66 2.88-.014.934-.307 1.78-.88 2.54-.574.76-1.44 1.427-2.6 2-1.16.573-2.66.993-4.5 1.26-.107.027-.294.066-.56.12-.267.053-.547.106-.84.16-.293.053-.58.1-.86.14-.28.04-.474.06-.58.06-.854.026-1.76-.026-2.72-.16-.96-.133-1.867-.34-2.72-.62-.854-.28-1.6-.625-2.24-1.04-.64-.413-1.08-.886-1.32-1.42zM204.858 367.445c0-.027-.007-.053-.02-.08-.014-.026-.02-.053-.02-.08v-.08l-.44-16.2v-.54c0-.253.006-.52.02-.8.013-.28.02-.546.02-.8v-.54c0-.026.006-.066.02-.12.013-.053.02-.106.02-.16-.027-.105-.06-.226-.1-.36s-.167-.186-.38-.16l-5.8.6c-.187.028-.3-.02-.34-.14l-.1-.3c-.106-.772-.16-1.593-.16-2.46s.106-1.7.32-2.5c.053-.133.146-.206.28-.22.133-.013.253-.02.36-.02l13.92-.08 1.28-.16c.053 0 .106.047.16.14.053.095.093.154.12.18 0 .027.02.154.06.38s.06.395.06.5c.106.72.16 1.375.16 1.96 0 .588-.027 1.335-.08 2.24-.054.188-.107.295-.16.32-.054.027-.16.04-.32.04-.8.107-1.574.094-2.32-.04-.747-.133-1.507-.173-2.28-.12-.24.055-.394.14-.46.26-.067.12-.1.288-.1.5l.36 18.48c-.08.16-.22.28-.42.36-.2.08-.407.133-.62.16-.214.026-.427.046-.64.06-.214.014-.36.033-.44.06-.054 0-.14.007-.26.02s-.253.022-.4.022c-.147 0-.28.006-.4.02s-.194.02-.22.02c-.16 0-.313-.033-.46-.1-.147-.068-.22-.155-.22-.262zM214.898 342.846c0-.026.06-.06.18-.1s.207-.06.26-.06l13.76-.84.24.358v.8c.025.16.053.414.08.76s.046.7.06 1.06c.013.36.013.688 0 .98-.014.294-.034.468-.06.52l-.4.522c-.08.026-.16.04-.24.04h-.4l-9.768.56c-.054.026-.102.134-.142.32-.04.187-.06.307-.06.36 0 .08.02.233.06.46.04.227.08.473.122.74l.12.78c.04.253.062.433.062.54.054.133.154.293.303.478.148.188.29.268.423.24l2.92-.24c.16-.026.286.067.38.28.093.214.166.467.22.76.053.294.093.574.12.84.026.268.04.44.04.52.053.668.02 1.147-.1 1.44-.12.294-.287.487-.5.58-.214.094-.467.134-.76.12-.294-.013-.587-.013-.88 0-.294.014-.574.094-.84.24-.267.146-.494.434-.68.86-.054.746-.094 1.58-.12 2.5-.027.92-.014 1.793.04 2.62 0 .106.006.24.02.4.013.16.02.253.02.28l.44.438c.56-.08 1.2-.2 1.92-.36.72-.16 1.446-.3 2.18-.42.733-.12 1.453-.192 2.16-.22.707-.025 1.346.06 1.92.26.573.2 1.04.534 1.4 1 .36.468.566 1.14.62 2.02 0 .135.02.388.06.76.04.375.06.628.06.762-.026.134-.087.2-.18.2-.094 0-.193.013-.3.04l-13.795.96-.965-25.158zM231.097 365.726l.76-23.28c0-.213.107-.36.32-.44s.467-.12.76-.12c.24 0 .594.008 1.06.02.468.015.935.06 1.4.14.467.08.88.19 1.24.32.36.135.554.32.58.56l-.72 18.642c0 .106.026.28.08.52.053.24.08.374.08.4l3.84.16c.133-.026.227.054.28.24.026.106.04.213.04.32l-.2 3.96c0 .053-.047.093-.14.12-.094.026-.194.046-.3.06s-.268.02-.48.02c-.107 0-.26.007-.46.02-.2.015-.314.008-.34-.02l-6.76-.6c-.694-.08-1.04-.294-1.04-.64v-.402zM242.257 365.726l.76-23.28c0-.213.107-.36.32-.44s.467-.12.76-.12c.24 0 .594.008 1.06.02.468.015.935.06 1.4.14.467.08.88.19 1.24.32.36.135.554.32.58.56l-.72 18.642c0 .106.026.28.08.52.053.24.08.374.08.4l3.84.16c.133-.026.227.054.28.24.026.106.04.213.04.32l-.2 3.96c0 .053-.047.093-.14.12-.094.026-.194.046-.3.06s-.268.02-.48.02c-.107 0-.26.007-.46.02-.2.015-.314.008-.34-.02l-6.76-.6c-.694-.08-1.04-.294-1.04-.64v-.402zM265.337 366.886c-.027-.24-.08-.66-.16-1.26s-.168-1.233-.26-1.9c-.094-.667-.188-1.307-.28-1.92s-.154-1.04-.18-1.28c-.08-.427-.175-.847-.28-1.26-.107-.413-.414-.74-.92-.98-.348 0-.774-.02-1.28-.06-.507-.04-.974-.047-1.4-.02-.294.16-.526.473-.7.94s-.326 1.013-.46 1.64c-.134.626-.24 1.293-.32 2-.08.706-.173 1.38-.28 2.02-.105.64-.24 1.22-.398 1.74-.16.52-.362.886-.602 1.1-.08 0-.207.013-.38.04-.174.026-.273.026-.3 0-.267.026-.634.046-1.1.06s-.935-.02-1.4-.1-.88-.207-1.24-.38c-.36-.174-.554-.42-.58-.74-.026-.267.054-.82.24-1.66.187-.84.446-1.854.78-3.04.332-1.187.713-2.5 1.14-3.94.427-1.44.86-2.893 1.3-4.36s.887-2.88 1.34-4.24.854-2.572 1.2-3.64.64-1.92.88-2.56c.24-.64.373-.96.4-.96.48-.026 1.013-.053 1.6-.08.586-.026 1.18-.013 1.78.04.6.054 1.16.147 1.68.28.52.134.953.347 1.3.64l4.32 24.16c0 .054-.074.12-.22.2s-.32.153-.52.22l-.6.2-.42.14c-.588 0-1.088.02-1.5.06-.415.04-.76.047-1.04.02s-.516-.118-.7-.278c-.19-.163-.335-.443-.44-.842zm-4.32-13.96c0 .08-.027.227-.08.44-.054.213-.113.433-.18.66-.067.226-.12.433-.16.62-.04.186-.06.293-.06.318l.92.2 1.52-.04.44-.44c.053-.025.086-.18.1-.46.013-.28.013-.6 0-.96-.014-.36-.034-.713-.06-1.06-.027-.346-.04-.586-.04-.72 0-.64-.034-1.153-.1-1.54-.068-.387-.182-.913-.34-1.58-.107-.106-.215-.187-.32-.24-.16.054-.254.147-.28.28-.24.507-.407.92-.5 1.24-.095.32-.167.627-.22.92-.055.294-.12.62-.2.98-.08.36-.227.82-.44 1.38zM287.056 343.005l11.2-1.08.68 4.68-7.48.24c-.187.08-.3.268-.34.56-.04.295-.04.607 0 .94.04.334.087.66.14.98s.094.534.12.64c.106.454.334.7.68.74s.728.034 1.142-.02c.412-.054.813-.094 1.2-.12s.686.106.9.4c-.028.08-.008.2.06.36.066.16.113.28.14.36 0 .16.02.372.06.64.04.266.08.54.12.82.04.278.06.525.06.74 0 .212-.026.332-.08.358l-.44.44-3.24.68c-.08 0-.132.054-.16.16-.025.08-.052.247-.08.5-.025.254-.013.407.042.46l1 10c0 .16-.055.367-.16.62-.107.254-.307.393-.6.42l-3.04.56-.32-.04c0-.054-.02-.174-.06-.36-.04-.187-.074-.306-.1-.36l-1.444-24.318zM299.656 365.726l.76-23.28c0-.213.107-.36.32-.44s.467-.12.76-.12c.24 0 .594.008 1.06.02.468.015.935.06 1.4.14.467.08.88.19 1.24.32.36.135.554.32.58.56l-.72 18.642c0 .106.026.28.08.52.053.24.08.374.08.4l3.84.16c.133-.026.227.054.28.24.026.106.04.213.04.32l-.2 3.96c0 .053-.047.093-.14.12-.094.026-.194.046-.3.06s-.268.02-.48.02c-.107 0-.26.007-.46.02-.2.015-.314.008-.34-.02l-6.76-.6c-.694-.08-1.04-.294-1.04-.64v-.402zM309.136 358.525c-.4-1.253-.56-2.62-.48-4.1.08-1.48.414-2.894 1-4.24s1.44-2.54 2.56-3.58 2.52-1.76 4.2-2.16c1.227-.267 2.4-.286 3.52-.06s2.14.626 3.06 1.2c.92.573 1.708 1.286 2.36 2.14s1.14 1.76 1.46 2.72c.694 2.054 1.054 4.02 1.08 5.9.027 1.88-.24 3.833-.8 5.86-.693 1.2-1.652 2.187-2.88 2.96-1.226.773-2.573 1.333-4.04 1.68-1.466.347-2.807.293-4.02-.16s-2.287-1.12-3.22-2c-.934-.88-1.72-1.88-2.36-3-.64-1.12-1.12-2.173-1.44-3.16zm4.72-.44c.187.56.446 1.08.78 1.56.333.48.74.888 1.22 1.22.48.335 1.02.56 1.62.68s1.273.102 2.02-.06c1.12-.24 1.906-.726 2.36-1.46.453-.732.72-1.553.8-2.46s.033-1.82-.14-2.74c-.174-.92-.34-1.7-.5-2.34-.026-.052-.073-.165-.14-.34-.067-.173-.14-.36-.22-.56-.08-.2-.147-.386-.2-.56-.055-.173-.08-.286-.08-.34-.214-.373-.494-.667-.84-.88-.348-.214-.734-.366-1.16-.46-.428-.094-.867-.134-1.32-.12s-.894.073-1.32.18-.74.214-.94.32c-.2.106-.433.32-.7.64-.853 1.36-1.393 2.627-1.62 3.8-.226 1.174-.1 2.48.38 3.92zM329.256 342.846c0-.026.06-.06.18-.1s.206-.06.26-.06l13.76-.84.24.358v.8c.026.16.054.414.08.76s.047.7.06 1.06c.014.36.014.688 0 .98-.013.294-.033.468-.06.52l-.4.522c-.08.026-.16.04-.24.04h-.4l-9.767.56c-.056.026-.103.134-.143.32s-.06.307-.06.36c0 .08.02.233.06.46.04.227.08.473.122.74.038.266.08.526.12.78.04.253.06.433.06.54.054.133.155.293.304.478.147.188.29.268.423.24l2.92-.24c.16-.026.286.067.38.28.094.214.166.467.22.76.054.294.094.574.12.84.027.268.04.44.04.52.054.668.02 1.147-.1 1.44-.12.294-.286.487-.5.58-.214.094-.467.134-.76.12-.294-.013-.587-.013-.88 0-.294.014-.574.094-.84.24-.268.146-.494.434-.68.86-.055.746-.094 1.58-.12 2.5-.027.92-.015 1.793.04 2.62 0 .106.006.24.02.4s.02.253.02.28l.44.438c.56-.08 1.2-.2 1.92-.36s1.446-.3 2.18-.42 1.453-.192 2.16-.22c.706-.025 1.347.06 1.92.26s1.04.534 1.4 1c.36.468.566 1.14.62 2.02 0 .135.02.388.06.76.04.375.06.628.06.762-.026.134-.086.2-.18.2s-.193.013-.3.04l-13.795.96-.966-25.158zM351.176 367.445c0-.027-.007-.053-.02-.08-.015-.026-.02-.053-.02-.08v-.08l-.44-16.2v-.54c0-.253.006-.52.02-.8.013-.28.02-.546.02-.8v-.54c0-.026.007-.066.02-.12.014-.053.02-.106.02-.16-.025-.105-.06-.226-.1-.36s-.166-.186-.38-.16l-5.8.6c-.187.028-.3-.02-.34-.14l-.1-.3c-.106-.772-.16-1.593-.16-2.46s.106-1.7.32-2.5c.053-.133.146-.206.28-.22.133-.013.253-.02.36-.02l13.92-.08 1.28-.16c.052 0 .105.047.16.14.052.095.092.154.12.18 0 .027.02.154.06.38s.06.395.06.5c.105.72.16 1.375.16 1.96 0 .588-.027 1.335-.08 2.24-.055.188-.107.295-.16.32-.054.027-.16.04-.32.04-.8.107-1.574.094-2.32-.04-.747-.133-1.507-.173-2.28-.12-.24.055-.394.14-.46.26s-.1.288-.1.5l.36 18.48c-.08.16-.22.28-.42.36-.2.08-.407.133-.62.16-.214.026-.427.046-.64.06-.214.014-.36.033-.44.06-.054 0-.14.007-.26.02-.12.015-.254.022-.4.022s-.28.006-.4.02-.193.02-.22.02c-.16 0-.313-.033-.46-.1s-.22-.155-.22-.262zM371.896 368.045l.08-6.72-4.44-.4h-.12c-.054 0-.094.008-.12.02-.026.015-.053.02-.08.02-.293.055-.48.148-.56.28-.08.135-.12.32-.12.562l.08 6.16c-.026.105-.073.232-.14.38-.067.146-.194.232-.38.26h-.08c-.107 0-.3-.014-.58-.04-.28-.027-.58-.054-.9-.08-.32-.027-.62-.06-.9-.1-.28-.04-.46-.074-.54-.1-.267-.027-.426-.095-.48-.2s-.08-.24-.08-.4l-.64-23.84c.027-.106.107-.26.24-.46.134-.2.28-.327.44-.38.32-.026.68-.014 1.08.04.4.053.807.12 1.22.2.414.08.82.166 1.22.26.4.093.747.153 1.04.18.134.106.227.207.28.3.054.094.094.193.12.3 0 .187.014.294.04.32l-.76 12.84c.24.08.593.153 1.06.22.467.067.96.12 1.48.16s1.02.06 1.5.06.854-.025 1.12-.08l.92-14.16c.133-.266.307-.412.52-.44.56-.052 1.174-.08 1.84-.08.667 0 1.267-.025 1.8-.08.24.08.387.148.44.2.054.055.094.16.12.32 0 .107.014.175.04.2l-1.08 23.76c-.026.268-.106.507-.24.72-.133.214-.373.334-.72.36-.16.027-.434.06-.82.1-.387.04-.786.048-1.2.022-.413-.028-.786-.08-1.12-.16-.333-.08-.526-.228-.58-.44v-.085z"/></g></g><g><image overflow="visible" opacity=".9" width="1032" height="905" xlink:href="DDD3CAB4.png" transform="matrix(.24 0 0 .24 229.57 -24.46)"/><g fill="#EF6F6F" stroke="#717171" stroke-width=".642" stroke-miterlimit="10"><path d="M271.795 44.97c-.222-.047-.5.158-.834.554-.1.118-.165.208-.18.272-.017.066-.068.126-.156.177-2.102 6.91-3.136 10.37-5.16 17.3-.298.354-.52.554-.672.592s-.436.015-.848-.065c-1.17-.227-2.334-.41-3.487-.547-1.154-.137-2.147-.374-2.977-.716-.83-.342-1.456-.817-1.882-1.432-.425-.613-.534-1.52-.314-2.717.146-.8.22-1.196.365-1.995 5.408-18.002 11.178-35.844 17.335-53.604.344-.765.677-1.254.997-1.473.318-.216 1.005-.23 2.05-.035 4.964.935 9.946 2.23 14.904 3.896 4.955 1.664 9.248 3.8 12.837 6.318 3.588 2.518 6.167 5.47 7.75 8.764 1.584 3.292 1.555 6.95.035 10.95-1.085 2.86-2.44 5.12-4.037 6.79-1.597 1.675-3.3 2.943-5.1 3.81-1.8.87-3.58 1.454-5.35 1.755-1.773.3-3.386.47-4.846.502s-2.687.038-3.677.01c-.992-.03-1.553.048-1.685.223l-.118.39c-.467 1.56-.175 3.11.838 4.663 1.012 1.55 2.138 3.114 3.37 4.69 1.23 1.575 2.315 3.123 3.253 4.637.937 1.513 1.14 2.98.64 4.386-.273.768-.797 1.49-1.56 2.17-.764.678-1.65 1.3-2.658 1.868-1.01.57-2.05 1.08-3.113 1.535-1.065.453-2.374 1.114-2.905 1.038-.47-.066-1.314-1.285-1.957-2.63-.645-1.345-1.325-2.92-2.053-4.73-.73-1.81-1.49-3.703-2.294-5.686s-1.607-3.815-2.39-5.493c-.785-1.68-1.544-3.102-2.26-4.263-.713-1.163-1.344-1.798-1.86-1.907zm4.005-14.523c-.145.592.075 1.122.655 1.593.58.472 1.302.856 2.168 1.156.863.3 1.738.554 2.625.764.886.21 1.56.372 2.02.485 2.075.51 3.978.67 5.73.472 1.75-.197 3.283-.647 4.597-1.368 1.313-.72 2.443-1.68 3.387-2.886.942-1.208 1.662-2.55 2.15-4.035.368-1.123.553-1.683.922-2.805-.218-1.198-.795-2.38-1.745-3.535s-2.1-2.22-3.44-3.18c-1.343-.96-2.808-1.78-4.382-2.457-1.576-.677-3.075-1.18-4.488-1.51-.582-.136-1.217-.248-1.9-.334-.684-.086-1.233 0-1.65.255-2.723 6.936-4.054 10.412-6.65 17.382zM298.64 68.467c.915-2.414 2.54-4.058 4.914-4.88 2.37-.82 5.12-1.12 8.216-.852 3.094.27 6.333.966 9.676 2.113 3.345 1.147 6.486 2.4 9.425 3.735l.926-.103c.096-.026.32-.37.668-1.035.35-.662.616-1.174.806-1.535.634-1.204 1.3-2.547 1.99-4.025s1.07-3.01 1.113-4.587c.044-1.578-.432-3.15-1.434-4.7-1.004-1.55-2.86-2.97-5.57-4.206-.855-.39-1.795-.74-2.82-1.044-1.025-.303-2.027-.518-3-.64-.976-.12-1.855-.065-2.636.162-.78.228-1.307.655-1.578 1.277-1.61 3.704-2.412 5.557-4.017 9.263-.08.188-.492.2-1.234.045-.743-.155-1.59-.405-2.538-.743-.95-.337-1.858-.67-2.73-1.003-.87-.333-1.446-.55-1.725-.652-.84-.312-1.415-.74-1.725-1.284-.31-.546-.49-1.135-.53-1.762-.043-.626.002-1.226.136-1.79.133-.563.27-1.04.414-1.42.65-1.714 1.736-3.456 3.288-5.208 1.55-1.752 3.514-3.21 5.896-4.342 2.382-1.132 5.13-1.787 8.222-1.92 3.09-.133 6.41.57 9.884 2.14 4.137 1.87 7.28 4.164 9.406 6.763 2.126 2.6 3.488 5.27 4.106 7.963.618 2.694.65 5.308.134 7.826-.516 2.52-1.336 4.716-2.426 6.6-5.01 8.66-7.507 12.993-12.488 21.668-.17.294-.494.384-.972.27-.48-.112-1.005-.29-1.567-.523-.563-.236-1.098-.49-1.602-.762-.505-.274-.85-.458-1.028-.553-1.19-.638-2.03-1.387-2.53-2.257-.5-.873-1.24-1.554-2.214-2.04-1.643-.823-3.45-1.324-5.404-1.49s-3.88-.675-5.803-1.517c-1.615-.706-3.204-1.546-4.78-2.522-1.58-.977-2.954-2.028-4.12-3.167-1.164-1.138-2.03-2.314-2.6-3.532-.572-1.218-.63-2.46-.15-3.73zm11.403 2.763c-.27.624-.31 1.16-.124 1.606s.52.863.997 1.25c.476.387 1.045.742 1.7 1.064.654.323 1.33.64 2.03.952 1.968.88 3.682 1.44 5.166 1.655 1.482.216 2.562-.332 3.233-1.67.304-.606.46-1.12.47-1.53.007-.41-.44-.99-1.346-1.724-1.08-.514-1.622-.767-2.71-1.268-.775-.357-1.653-.717-2.624-1.076-.973-.36-1.91-.622-2.81-.788-.9-.166-1.713-.14-2.427.077-.716.218-1.232.702-1.557 1.45zM354.095 105.946c4.528-5.587 6.806-8.37 11.386-13.917.123-.165.333-.474.63-.934.296-.458.598-.956.906-1.49s.61-1.03.906-1.49c.295-.457.474-.793.537-1 .19-.62.312-1.316.367-2.08.056-.76 0-1.545-.164-2.34-.164-.793-.453-1.552-.866-2.267s-1.02-1.327-1.795-1.778c-1.17-.68-2.538-.794-4.017-.363-1.48.43-2.585 1.063-3.317 1.88-6.47 7.263-9.65 10.936-15.908 18.36-.563.12-.842.18-1.402.305-2.38-2.026-3.59-3.02-6.053-4.97.505-.968 1.154-1.848 1.952-2.638 6.92-10.18 13.945-20.286 21.077-30.317.25-.403.725-.677 1.416-.81.688-.134 1.276-.11 1.695.092 1.592.77 3.058 2.034 4.293 3.534 1.234 1.5.764 3.968.912 4.464.008.027.15.125.262.24.11.117.2.197.264.238.77.48 1.666.746 2.564.828.896.083 1.84.14 2.833.172.99.033 2.003.148 3.032.346 1.028.197 2.017.61 2.95 1.205 2.196 1.398 3.84 2.886 4.84 4.44 1 1.555 1.56 3.113 1.683 4.652s-.105 3.094-.675 4.648c-.57 1.556-1.332 3.09-2.277 4.603l-1.358 1.656c-7.264 7.71-10.863 11.593-17.99 19.42-.17.213-.575.498-1.21.86-.633.36-1.127.442-1.484.243-2.347-2.36-3.546-3.52-5.99-5.797zM382.714 96.605c1.63-1.915 3.836-3.232 6.642-3.888 2.805-.655 5.9-.698 9.27-.073 3.368.625 6.788 1.873 10.2 3.76 3.413 1.887 6.506 4.338 9.22 7.317 1.52 1.668 2.497 3.235 2.943 4.674.445 1.438.126 2.63-.94 3.576-.255.225-.674.568-1.258 1.034-.586.465-1.234.858-1.946 1.176-.713.318-1.45.53-2.21.637-.762.107-1.642-.047-2.135-.504-1.437-1.332-2.81-3.392-4.094-4.676-1.285-1.285-2.58-2.376-3.868-3.272-1.29-.896-2.677-1.6-4.154-2.117-1.48-.518-3.145-.91-4.98-1.173l-2.032 2.147c-1.26 1.333-1.896 2.822-1.927 4.454s.236 3.304.792 5.026c.555 1.72 1.288 3.476 2.192 5.27.904 1.796 1.676 3.485 2.317 5.054.64 1.566 1.058 2.99 1.26 4.252.205 1.263-.086 2.233-.845 2.91l-1.06.952c-.405.362-.87.658-1.387.888-.52.23-1.08.358-1.684.388-.603.03-1.368-.16-1.884-.606-.228-.198-.676-.738-1.348-1.433-.673-.696-1.15-1.195-1.432-1.5-2.753-3.007-4.95-5.993-6.585-9.044-1.634-3.052-2.717-6.035-3.227-8.997-.51-2.962-.444-5.83.243-8.617s1.978-5.336 3.918-7.615zM408.93 159.263c1.06-1.01 2.247-2.03 3.55-2.82 1.305-.79 2.63-1.572 3.985-2.345 1.354-.774 2.687-1.55 3.995-2.33 1.308-.78 2.52-1.78 3.633-2.875.72-.71 1.386-1.43 1.91-2.166s.873-1.52 1.05-2.348c.176-.83.124-1.686-.156-2.57-.28-.885-.868-1.88-1.774-2.9-1.465-1.65-3.013-2.33-4.49-2.054-1.478.276-2.95.994-4.423 2.135-1.475 1.143-2.97 2.537-4.496 4.176-1.526 1.64-3.034 3.02-4.51 4.16-1.477 1.136-2.947 1.85-4.41 2.15-1.462.302-2.888-.28-4.312-1.667-.64-.622-1.265-1.27-1.84-1.947-.578-.678-1.08-2.098-.786-2.694.054-.11.38-.367.674-.706.293-.337.49-.634.61-.783 2.69-3.406 7.196-7.217 11.184-11.235 3.984-4.018 7.902-7.982 11.752-11.894 3.85-3.91 7.495-7.625 10.93-11.126 3.436-3.502 6.35-6.52 8.745-9.047 2.397-2.526 4.177-4.388 5.348-5.578 1.17-1.19.686-.685.686-.685s.914-.524 1.68-.3 1.482.568 1.988 1.037c.62.574 1.102 1.862 1.407 3.642.305 1.778.502 3.663.587 5.642.085 1.98.038 3.786-.126 5.42-.162 1.633-.316 2.732-.5 2.965-.032.043-.105.113-.16.21-.053.095-.11.177-.16.208-.93.585-2.766 1.42-4.923 2.666-2.158 1.247-4.42 2.64-6.78 4.177-2.364 1.54-4.564 3.095-6.61 4.657-2.046 1.564-3.537 2.915-4.457 4.047-.22.27-.21.565.027.882l.643.853c.095.125.2.243.323.35.12.105.21.223.254.253 1.157.788 3.877 1.13 5.604 1.74 1.73.613 3.41 1.81 4.924 3.593 1.353 1.592 2.068 3.354 2.153 5.156.085 1.8-.214 3.53-.892 5.18-.68 1.65-1.56 3.152-2.627 4.505s-2.07 2.458-2.956 3.317c-3.26 3.163-6.934 5.867-10.958 8.027-4.023 2.16-8.187 4.977-11.77 6.5-.397.168-.845.01-1.128-.382-.284-.393-.514-.625-.62-.708-.4-.31-.814-.876-1.212-1.438s-.712-1.145-.938-1.74c-.228-.6-.336-1.2-.326-1.795.01-.602.27-1.107.7-1.514z"/></g></g><g><text transform="matrix(.8 0 0 1 225.56 46.1)" fill="#EF6F6F" stroke="#717171" stroke-width=".66" stroke-miterlimit="10" font-family="'Rumpelstiltskin'" font-size="71.349">-</text></g><g><image overflow="visible" opacity=".9" width="1125" height="920" xlink:href="DDD3CAB3.png" transform="matrix(.24 0 0 .24 -22.77 -9)"/><g fill="#EF6F6F" stroke="#717171" stroke-width=".712" stroke-miterlimit="10"><path d="M47.79 161.403c-.38.593-.262 1.37.354 2.322s1.52 1.97 2.705 3.047c1.187 1.08 2.5 2.19 3.934 3.324 1.435 1.137 2.77 2.206 4.005 3.208 1.235 1.003 2.233 1.873 2.988 2.61s1.04 1.256.85 1.564c-2.053 3.346-3.052 5.04-4.988 8.474-18.308-12.853-36.373-26-54.237-39.462-.6-.466-.69-1.057-.27-1.76.418-.7.772-1.288 1.054-1.752.566-.934 1.18-1.968 1.847-3.108.664-1.135 1.387-2.187 2.16-3.143s1.57-1.653 2.384-2.088c.815-.437 1.623-.38 2.422.152 6.32 5.838 9.508 8.724 15.933 14.428.344.225.75.39 1.212.492s.876-.125 1.24-.687c.055-.084.08-.127.136-.21.01-.396-.026-.996-.11-1.81-.082-.81-.134-1.324-.154-1.544-2.79-10.273-3.99-15.538-5.963-26.272-.12-.76-.166-1.242-.14-1.447s.25-.592.683-1.162c.323-.427.89-1.117 1.705-2.065.817-.948 1.72-1.882 2.706-2.803.987-.918 1.963-1.643 2.923-2.176s1.73-.554 2.314-.074c1.338 12.935 3.467 25.787 6.405 38.455l.254.175c11.296-.994 22.352-1.54 33.69-1.635l.242.194c.064.05.097.078.16.13.055.042.15-.023.15-.023.052.017.187 1.973.395 3.49.21 1.516.292 2.987.242 4.41-.05 1.424-.35 2.594-.913 3.524s-1.785.938-3.173.747c-1.165-.16-3.276-.132-5.78-.344-2.504-.21-5.072-.293-7.694-.233-2.624.06-5.06.32-7.297.773-2.237.455-3.702 1.23-4.376 2.28zM42.168 114.64c-1.218-1.007-2.06-2.37-2.504-4.102-.443-1.732-.55-3.568-.31-5.506.24-1.937.8-3.882 1.677-5.828.878-1.943 1.98-3.645 3.293-5.092 1.014-1.118 2.104-1.923 3.264-2.415 1.158-.49 2.31-.736 3.452-.743 1.14-.005 2.217.21 3.23.642s1.866.985 2.557 1.654c1.038 1.004 1.85 2.12 2.44 3.34.592 1.224.9 2.52.93 3.89.03 1.372-.224 2.778-.763 4.224-.54 1.448-1.45 2.882-2.73 4.32-.67.75-1.67 1.57-2.998 2.47-1.33.9-2.717 1.677-4.166 2.328-1.45.65-2.856 1.103-4.216 1.353-1.36.248-2.412.077-3.156-.536zm15.382 4.402c1.904-4.527 2.906-6.78 5.013-11.265.27-.292.402-.437.672-.728.28-.305.533-.552.756-.74.223-.188.57-.232 1.04-.13l2.172 2.056c7.847 9.11 15.802 18.125 23.86 27.047-2.578 2.82-3.844 4.252-6.325 7.168-9.063-7.8-18.125-15.604-27.187-23.408zM114.752 115.93c-4.495-5.716-6.734-8.582-11.193-14.326-.136-.157-.396-.43-.784-.822-.388-.39-.813-.796-1.275-1.216-.46-.418-.886-.824-1.274-1.214s-.68-.64-.874-.747c-.578-.316-1.25-.578-2-.79-.75-.21-1.545-.315-2.38-.312s-1.663.14-2.48.41-1.57.754-2.21 1.443c-.96 1.036-1.41 2.392-1.336 3.97.073 1.58.44 2.82 1.08 3.728 5.69 8.02 8.578 11.997 14.438 19.875-.02.594-.03.892-.048 1.486-2.637 2-3.945 3.022-6.53 5.115-.84-.713-1.556-1.556-2.142-2.53-8.423-9.148-16.776-18.358-25.062-27.63-.342-.336-.498-.867-.463-1.588.033-.72.2-1.306.503-1.684 1.156-1.437 2.77-2.64 4.566-3.565 1.794-.926 4.153.054 4.682.015.03-.002.16-.128.302-.215.14-.086.246-.158.302-.214.666-.673 1.146-1.522 1.442-2.406.296-.883.577-1.82.844-2.808s.624-1.98 1.063-2.973c.44-.993 1.086-1.896 1.898-2.712 1.917-1.922 3.787-3.268 5.575-3.956 1.786-.688 3.473-.938 5.043-.753s3.074.725 4.5 1.61 2.787 1.958 4.083 3.21l1.345 1.7c6.04 8.85 9.087 13.254 15.234 22.024.17.214.362.68.57 1.395s.17 1.23-.117 1.554c-2.948 1.915-4.41 2.903-7.303 4.925zM136.02 95.245C134.616 96.385 133 97 131.15 97.1c-1.847.103-3.69-.1-5.538-.614-1.845-.513-3.608-1.25-5.285-2.224-1.677-.972-3.01-2.067-3.993-3.186-1.745-1.987-3.224-4.2-4.207-6.65-.982-2.45-1.492-4.96-1.505-7.52-.013-2.56.54-5.084 1.68-7.546 1.138-2.46 3.003-4.664 5.413-6.584 1.143-.91 2.31-1.71 3.482-2.314 1.17-.602 3.34-1.704 3.513-2.265.45-1.467-2.375-6.37-3.792-8.77s-2.79-4.5-4.132-6.296c-1.34-1.794-2.556-3.468-3.643-5.02-1.086-1.548-1.803-3.253-2.13-5.117-.327-1.862-.18-4.044.474-6.54.654-2.494 2.023-5.575 4.19-9.21l.068-.156.137-.318c.32-.186 1.137-.21 1.496.092.07.06.23.305.48.557.25.252.5.546.746.88.245.335.503.645.77.927.267.283.42.454.453.513 11.228 21.102 22.573 42.137 34.036 63.112.595 1.167.822 1.986.685 2.463-.137.478-.705 1.108-1.678 1.823-1.314.965-2.61 1.604-3.797 1.93-1.19.328-2.673.16-4.463-.498-3.495 2.605-5.213 3.94-8.59 6.675zm-11.853-13.868c1.5 1.885 3.613 2.923 5.69 3.083 2.077.16 4.567-.568 6.315-2.236.152-.145.417-.456.803-.828.385-.372.594-.606.62-.706.128-.72.19-1.078.324-1.797-.148-.23-.485-.935-1.008-2.11-.523-1.174-1.146-2.41-1.873-3.697-.728-1.288-1.54-2.424-2.44-3.4-.898-.977-1.842-1.356-2.826-1.135-2.857 2.128-4.27 3.213-7.054 5.42-.676.548-1.034 1.173-1.074 1.87-.04.7.085 1.385.37 2.066.287.68.65 1.333 1.084 1.952.434.62.785 1.165 1.067 1.52zM151.793 68.86c-.737-1.32-1.508-2.898-2.31-4.735-.8-1.835-1.468-3.842-1.993-6.023-.525-2.18-.828-4.44-.9-6.782-.072-2.34.26-4.62 1.01-6.827.747-2.206 1.956-4.31 3.63-6.287 1.672-1.976 4.003-3.67 6.98-5.04 3.894-1.79 7.484-2.44 10.674-1.99 3.19.452 5.99 1.534 8.387 3.21 2.4 1.676 4.355 3.668 5.89 5.95 1.534 2.282 2.662 4.39 3.405 6.313.05.128.315.76.797 1.9s.917 2.427 1.306 3.857c.39 1.432.57 2.798.55 4.092-.02 1.295-.483 2.116-1.39 2.47-7.538 2.954-11.245 4.566-18.514 8.047-.472.226-.753.496-.848.81-.095.312-.11.626-.04.935.07.31.173.604.31.882l.297.6c.638 1.295 1.6 2.125 2.878 2.502 1.28.377 2.6.61 3.96.697 1.362.087 2.63.207 3.806.356 1.175.148 1.93.606 2.27 1.358.197.437.297 1.014.307 1.724.01.71-.065 1.44-.227 2.19-.16.752-.456 1.45-.886 2.1-.432.653-.993 1.14-1.688 1.465-3.542 1.657-6.705 2.244-9.593 1.716s-5.503-1.607-7.845-3.274-4.38-3.647-6.09-5.96c-1.71-2.314-3.093-4.4-4.132-6.26zm8.114-15.273c.642 1.293 1.26 2.41 1.852 3.342.592.934 1.31 1.636 2.14 2.11.834.473 1.855.63 3.056.478 1.203-.152 2.773-.68 4.728-1.564.907-.41 1.96-.92 3.162-1.52 1.2-.6 2.203-1.54 2.177-2.063-.01-.176-.295-.73-.56-1.44-.265-.71-.44-1.16-.52-1.35-.383-.882-.9-2.026-1.55-3.43-.65-1.4-1.482-2.673-2.5-3.807-1.02-1.134-2.237-1.957-3.656-2.46-1.42-.502-3.105-.322-5.026.557-1.772.812-3.015 1.703-3.726 2.65-.712.948-1.092 1.915-1.146 2.895-.054.982.095 1.96.445 2.937s.727 1.865 1.124 2.665zM182.656 26.445c3.14-1.496 4.72-2.223 7.917-3.635 1.485.287 2.225.436 3.7.74l.36-.114c1.55-.64 2.942-1.506 4.186-2.6 1.242-1.093 2.784-2.096 4.56-2.843 1.843-.775 3.66-1.075 5.27-.97 1.61.104 3.037.518 4.27 1.23 1.23.715 2.292 1.64 3.18 2.763.89 1.125 1.55 2.344 2.047 3.527.71 1.696 1.377 3.216 1.818 4.486s1.156 3.056 1.38 4.802c.08.618-.213 1.286-.667 1.748-.457.465-1.002.88-1.64 1.25-.64.37-1.35.693-2.133.965-.783.272-1.543.5-2.06.752-.202.098-.636.292-1.27.5-.635.207-1.03.19-1.18-.053-1.583-3.324-2.384-4.983-4.003-8.293-.327-.834-1.088-1.48-2.28-1.92-1.195-.443-2.378-.406-3.506.058-1.427.586-2.533 1.632-3.237 3.146-.706 1.516-.952 2.823-.76 3.914 5.09 8.364 7.553 12.583 12.322 21.088.477.79.435 1.787-.107 2.99-.542 1.206-1.236 2.392-2.073 3.556-.837 1.165-1.67 2.193-2.505 3.084-.834.89-1.322 1.436-1.48 1.635l-.64.437-.557.192s-.535.036-.693-.198c-1.234-2.32-1.856-3.48-3.107-5.792-5.56-12.215-11.264-24.366-17.114-36.445z"/></g></g><g><path opacity=".7" fill="#FFF" d="M88.532 58.56c0 2.595-1.135 4.593-2.46 4.593-1.328 0-3.563-2.477-4.006-4.926-.46-2.55-1.055-4.582 3.025-4.582 1.327 0 3.442 2.324 3.442 4.916z"/><path fill="#292825" d="M79.392 73.226l-3.345-.163 3.136-1.176"/><path fill="#F9D98A" stroke="#312E26" stroke-width=".903" stroke-linecap="round" stroke-miterlimit="10" d="M78.924 72.563c1.005 3.677 7.385 4.646 13.447 2.973 6.063-1.673 10.5-3.49 9.155-9.685-.81-3.724-6.735-5.297-12.798-3.625-6.062 1.674-10.81 6.663-9.803 10.338z"/><path fill="none" stroke="#312E26" stroke-width="1.486" stroke-linecap="round" stroke-miterlimit="10" d="M89.014 62.59c-1.073 5.947 2.72 12.707 2.72 12.707"/><path fill="none" stroke="#292825" stroke-width="1.486" stroke-linecap="round" stroke-miterlimit="10" d="M86.39 63.69c-.766 2.448 1.247 10.632 2.703 11.97M83.645 64.97c-.772 3.97 2.134 10.8 3.02 10.883M81.04 67.17c-.366 3.686 2.965 8.683 2.965 8.683"/><path fill="none" stroke="#292825" stroke-width="1.115" stroke-linecap="round" stroke-miterlimit="10" d="M79.305 69.832c-.225 2.145 1.748 5.172 1.748 5.172"/><path fill="none" stroke="#312E26" stroke-width=".452" stroke-linecap="round" stroke-miterlimit="10" d="M98.176 69.252s-.295 1.17-1.737 1.16c-1.442-.01-1.626-1.16-1.626-1.16"/><ellipse transform="rotate(174.94 94.09 65.06)" fill="#312E26" cx="94.093" cy="65.056" rx=".721" ry=".445"/><ellipse transform="rotate(172.14 99.25 64.16)" fill="#312E26" cx="99.247" cy="64.158" rx=".721" ry=".446"/><ellipse fill="#312E26" cx="100.375" cy="58.84" rx=".943" ry=".835"/><ellipse fill="#312E26" cx="98.176" cy="56.836" rx=".887" ry=".835"/><path fill="none" stroke="#312E26" stroke-width=".452" stroke-linecap="round" stroke-miterlimit="10" d="M100.06 59.47l-1.625 2.54M97.77 57.67l-.48 4.045M96.92 74.778l.85 1.855M97.77 76.633l-.333.723"/><g fill="none" stroke="#312E26" stroke-width=".452" stroke-linecap="round" stroke-miterlimit="10"><path d="M94.525 75.344l.85 1.855M95.67 77.984l-7.27-5.566"/></g><g fill="none" stroke="#312E26" stroke-width=".452" stroke-linecap="round" stroke-miterlimit="10"><path d="M91.062 76.067l.85 1.856M91.912 77.923l-.333.723"/></g><g fill="none" stroke="#312E26" stroke-width=".452" stroke-linecap="round" stroke-miterlimit="10"><path d="M88.4 76.412l.847 1.856M89.247 78.268l-.33.723"/></g><path opacity=".7" fill="#FFF" d="M84.233 58.957c1.97 1.676 2.756 3.837 1.9 4.853-.86 1.018-4.186 1.13-6.334-.114-2.237-1.294-4.163-2.154-1.526-5.28.857-1.017 3.99-1.135 5.96.54z"/></g><g><path fill="none" stroke="#2D2E2D" stroke-width=".743" stroke-miterlimit="10" d="M419.134 98.018l-.654 1.577 1.672 2.31.556 3.716"/><ellipse transform="rotate(-131.49 401.75 92.02)" fill="#2D2E2D" cx="401.754" cy="92.034" rx="1.997" ry="3.047"/><ellipse transform="rotate(135.77 400.43 90.58)" fill="#2D2E2D" cx="400.435" cy="90.584" rx="1.319" ry="1.063"/><path fill="none" stroke="#2D2E2D" stroke-width=".743" stroke-miterlimit="10" d="M399.234 90.383l-3.81-1.43v-2.88M401.013 89.39l-.578-1.924-2.13-1.394M405.57 101.986v2.202l1.265 1.636-1.08 4.354M411.41 104.762l-.657 1.577 1.674 2.307.557 3.717M401.76 97.92l-1.325 1.437.502 2.63-1.828 3.005"/><ellipse transform="rotate(15.38 411.37 95.93)" fill="#BB2D26" stroke="#2D2E2D" stroke-width=".372" stroke-miterlimit="10" cx="411.374" cy="95.919" rx="9.291" ry="5.14"/><ellipse transform="rotate(28.99 409.51 98.41)" fill="#BB2D26" stroke="#2D2E2D" stroke-width=".372" stroke-miterlimit="10" cx="409.516" cy="98.397" rx="9.29" ry="5.141"/><ellipse fill="#32160D" cx="404.683" cy="94.781" rx=".971" ry=".828"/><path fill="#32160D" d="M412.05 96.64c-.332.712-1.352.94-2.266.506-.92-.434-1.387-1.362-1.053-2.073.34-.713 1.355-.94 2.274-.506.915.432 1.384 1.36 1.046 2.074z"/><ellipse fill="#32160D" cx="411.266" cy="101.278" rx="1.751" ry="1.424"/><ellipse fill="#32160D" cx="410.335" cy="91.098" rx=".627" ry=".349"/><ellipse transform="rotate(15.38 413.21 92.98)" fill="#32160D" cx="413.169" cy="93.041" rx=".999" ry=".704"/><ellipse fill="#32160D" cx="418.774" cy="97.153" rx="1.046" ry="1.017"/></g></svg>